<svg width="64" height="32" viewBox="0 0 64 32" fill="none" xmlns="http://www.w3.org/2000/svg">
<path d="M7.4663 1.02472C10.8973 1.02472 11.697 3.4667 11.697 4.79147C11.6933 5.39909 11.5384 5.99623 11.2464 6.52909C10.9544 7.06196 10.5344 7.51381 10.0243 7.84394C10.5301 8.17123 10.9474 8.61825 11.2392 9.14537C11.531 9.6725 11.6882 10.2635 11.697 10.8659C11.697 12.2273 10.8973 14.6082 7.4663 14.6082C4.03532 14.6082 3.25999 12.2273 3.25999 10.8659C3.25842 10.2598 3.41115 9.66319 3.70379 9.13238C3.99643 8.60157 4.41936 8.15397 4.93275 7.83173C4.41792 7.50657 3.99427 7.0558 3.70164 6.52181C3.40902 5.98782 3.25703 5.38817 3.25999 4.77926C3.25999 3.44228 4.03532 1.02472 7.4663 1.02472ZM10.1952 4.79147C10.1952 3.11261 8.85212 2.27623 7.4663 2.27623C6.08048 2.27623 4.7557 3.11261 4.7557 4.79147C4.7557 6.47033 6.06216 7.23345 7.4663 7.23345C8.87044 7.23345 10.1952 6.44591 10.1952 4.79147V4.79147ZM4.7557 10.8537C4.7557 12.5081 6.06216 13.3445 7.4663 13.3445C8.87044 13.3445 10.1952 12.502 10.1952 10.8537C10.1952 9.20535 8.85212 8.4117 7.4663 8.4117C6.08048 8.4117 4.7557 9.13819 4.7557 10.8537Z" fill="#B88F34"/>
<path d="M61.3913 30.7497C61.3103 30.7497 61.2327 30.7175 61.1755 30.6603C61.1182 30.603 61.086 30.5254 61.086 30.4444V17.624C61.0844 16.8933 60.793 16.1929 60.2757 15.6768C59.7583 15.1606 59.0574 14.8707 58.3266 14.8707H20.4759C19.7457 14.8707 19.0454 15.1608 18.529 15.6771C18.0127 16.1935 17.7226 16.8938 17.7226 17.624V30.4444C17.7226 30.5254 17.6905 30.603 17.6332 30.6603C17.576 30.7175 17.4983 30.7497 17.4174 30.7497C17.3364 30.7497 17.2588 30.7175 17.2015 30.6603C17.1443 30.603 17.1121 30.5254 17.1121 30.4444V17.624C17.1121 16.7319 17.4665 15.8763 18.0974 15.2455C18.7282 14.6146 19.5838 14.2602 20.4759 14.2602H58.3266C58.7722 14.2586 59.2138 14.3454 59.6256 14.5155C60.0375 14.6857 60.4116 14.9358 60.7261 15.2515C61.0406 15.5672 61.2894 15.9421 61.4581 16.3546C61.6268 16.7671 61.712 17.2089 61.7088 17.6546V30.475C61.701 30.5527 61.6638 30.6244 61.6047 30.6756C61.5457 30.7267 61.4693 30.7532 61.3913 30.7497V30.7497Z" fill="#B88F34"/>
<path d="M58.4853 13.1675C58.4048 13.1659 58.3281 13.1332 58.2712 13.0763C58.2143 13.0194 58.1816 12.9427 58.1801 12.8622V3.3446C58.1801 2.25182 57.1239 1.36049 55.8297 1.36049H22.9606C21.6664 1.36049 20.6102 2.25182 20.6102 3.3446V12.8622C20.6102 12.9432 20.5781 13.0208 20.5208 13.0781C20.4636 13.1353 20.3859 13.1675 20.305 13.1675C20.2245 13.1659 20.1478 13.1332 20.0909 13.0763C20.034 13.0194 20.0013 12.9427 19.9997 12.8622V3.3446C19.9997 1.91604 21.3306 0.75 22.9606 0.75H55.8297C57.4658 0.75 58.7905 1.91604 58.7905 3.3446V12.8622C58.7905 12.9432 58.7584 13.0208 58.7011 13.0781C58.6439 13.1353 58.5663 13.1675 58.4853 13.1675Z" fill="#B88F34"/>
<path d="M61.3913 26.0611H17.4051C17.3242 26.0611 17.2465 26.029 17.1893 25.9717C17.132 25.9145 17.0999 25.8368 17.0999 25.7559C17.0999 25.6749 17.132 25.5973 17.1893 25.54C17.2465 25.4828 17.3242 25.4506 17.4051 25.4506H61.3913C61.4717 25.4522 61.5485 25.4848 61.6054 25.5418C61.6623 25.5987 61.695 25.6754 61.6965 25.7559C61.6965 25.8368 61.6644 25.9145 61.6071 25.9717C61.5499 26.029 61.4722 26.0611 61.3913 26.0611Z" fill="#B88F34"/>
<path d="M36.6785 13.1675C36.598 13.1659 36.5212 13.1332 36.4643 13.0763C36.4074 13.0194 36.3748 12.9427 36.3732 12.8622V7.68522C36.3732 7.39215 36.2568 7.11109 36.0496 6.90387C35.8423 6.69664 35.5613 6.58022 35.2682 6.58022H27.521C27.2274 6.58022 26.9457 6.69644 26.7375 6.90349C26.5293 7.11055 26.4115 7.39159 26.4099 7.68522V12.8622C26.4099 12.9432 26.3778 13.0208 26.3205 13.0781C26.2633 13.1353 26.1856 13.1675 26.1047 13.1675C26.0242 13.1659 25.9475 13.1332 25.8906 13.0763C25.8337 13.0194 25.801 12.9427 25.7994 12.8622V7.68522C25.8011 7.22968 25.9831 6.79335 26.3058 6.47181C26.6285 6.15027 27.0655 5.96972 27.521 5.96973H35.2926C35.7476 5.96973 36.1839 6.15047 36.5057 6.47218C36.8274 6.7939 37.0081 7.23024 37.0081 7.68522V12.8622C37.0083 12.9044 36.9996 12.9462 36.9828 12.985C36.9659 13.0237 36.9412 13.0585 36.9103 13.0872C36.8793 13.1159 36.8427 13.1378 36.8028 13.1516C36.7629 13.1654 36.7205 13.1708 36.6785 13.1675Z" fill="#B88F34"/>
<path d="M35.1888 13.1125C35.1079 13.1125 35.0302 13.0803 34.973 13.0231C34.9157 12.9659 34.8836 12.8882 34.8836 12.8073V9.13819C34.882 8.95248 34.8075 8.77483 34.6762 8.64351C34.5449 8.51219 34.3672 8.43771 34.1815 8.43612H28.626C28.4403 8.43771 28.2627 8.51219 28.1313 8.64351C28 8.77483 27.9255 8.95248 27.9239 9.13819V12.8317C27.9239 12.9126 27.8918 12.9903 27.8345 13.0475C27.7773 13.1048 27.6996 13.1369 27.6187 13.1369C27.5377 13.1369 27.4601 13.1048 27.4029 13.0475C27.3456 12.9903 27.3134 12.9126 27.3134 12.8317V9.13819C27.3134 8.79007 27.4517 8.45622 27.6979 8.21006C27.944 7.96391 28.2779 7.82562 28.626 7.82562H34.1815C34.5296 7.82562 34.8635 7.96391 35.1096 8.21006C35.3558 8.45622 35.4941 8.79007 35.4941 9.13819V12.8317C35.4879 12.9083 35.4531 12.9798 35.3965 13.0319C35.3399 13.084 35.2657 13.1128 35.1888 13.1125V13.1125Z" fill="#B88F34"/>
<path d="M50.8786 13.1125C50.7976 13.1125 50.72 13.0803 50.6627 13.0231C50.6055 12.9659 50.5733 12.8882 50.5733 12.8073V9.13819C50.5717 8.95248 50.4972 8.77483 50.3659 8.64351C50.2346 8.51219 50.0569 8.43771 49.8712 8.43612H44.3157C44.13 8.43771 43.9524 8.51219 43.8211 8.64351C43.6897 8.77483 43.6153 8.95248 43.6137 9.13819V12.8317C43.6137 12.9126 43.5815 12.9903 43.5243 13.0475C43.467 13.1048 43.3894 13.1369 43.3084 13.1369C43.2275 13.1369 43.1498 13.1048 43.0926 13.0475C43.0353 12.9903 43.0032 12.9126 43.0032 12.8317V9.13819C43.0032 8.79007 43.1415 8.45622 43.3876 8.21006C43.6338 7.96391 43.9676 7.82562 44.3157 7.82562H49.8712C50.2194 7.82562 50.5532 7.96391 50.7994 8.21006C51.0455 8.45622 51.1838 8.79007 51.1838 9.13819V12.8317C51.1777 12.9083 51.1428 12.9798 51.0862 13.0319C51.0296 13.084 50.9555 13.1128 50.8786 13.1125V13.1125Z" fill="#B88F34"/>
<path d="M52.3926 13.1675C52.3121 13.1659 52.2354 13.1332 52.1785 13.0763C52.1215 13.0194 52.0889 12.9427 52.0873 12.8622V7.68523C52.0873 7.39217 51.9709 7.1111 51.7637 6.90388C51.5564 6.69665 51.2754 6.58023 50.9823 6.58023H43.2046C42.911 6.58023 42.6293 6.69645 42.4211 6.9035C42.2129 7.11056 42.0951 7.39161 42.0935 7.68523V12.8622C42.0935 12.9432 42.0614 13.0208 42.0041 13.0781C41.9469 13.1353 41.8692 13.1675 41.7883 13.1675C41.7078 13.1659 41.6311 13.1332 41.5742 13.0763C41.5173 13.0194 41.4846 12.9427 41.483 12.8622V7.68523C41.483 7.45943 41.5276 7.23586 41.6142 7.02732C41.7008 6.81879 41.8277 6.62941 41.9876 6.47003C42.1476 6.31065 42.3374 6.18442 42.5463 6.09856C42.7551 6.01271 42.9788 5.96893 43.2046 5.96974H50.9823C51.4373 5.96974 51.8736 6.15048 52.1954 6.47219C52.5171 6.79391 52.6978 7.23025 52.6978 7.68523V12.8622C52.6978 12.9432 52.6657 13.0208 52.6084 13.0781C52.5512 13.1353 52.4735 13.1675 52.3926 13.1675Z" fill="#B88F34"/>
</svg>
