<svg width="45" height="32" viewBox="0 0 45 32" fill="none" xmlns="http://www.w3.org/2000/svg">
<g clip-path="url(#clip0)">
<path d="M39.5439 31.22H30.1141V24.0469H26.0299V31.22H16.6063V15.7495C16.6063 15.6684 16.6385 15.5907 16.6959 15.5334C16.7534 15.4762 16.8312 15.444 16.9124 15.444C16.9931 15.4455 17.0701 15.4782 17.1272 15.5352C17.1843 15.5921 17.217 15.6689 17.2186 15.7495V30.609H25.4176V23.4359H30.7265V30.609H38.9316V15.7495C38.9316 15.6684 38.9639 15.5907 39.0213 15.5334C39.0787 15.4762 39.1566 15.444 39.2378 15.444C39.3185 15.4455 39.3954 15.4782 39.4525 15.5352C39.5096 15.5921 39.5424 15.6689 39.5439 15.7495V31.22Z" fill="#B88F34"/>
<path d="M43.1749 17.662C43.1332 17.663 43.0918 17.6547 43.0537 17.6378C43.0156 17.6209 42.9817 17.5958 42.9545 17.5642L28.075 1.9165L13.1955 17.5642C13.1678 17.5935 13.1345 17.617 13.0977 17.6335C13.0608 17.65 13.0211 17.659 12.9807 17.6602C12.9403 17.6613 12.9001 17.6545 12.8624 17.6401C12.8247 17.6258 12.7901 17.6041 12.7608 17.5764C12.7314 17.5487 12.7078 17.5156 12.6913 17.4788C12.6748 17.442 12.6658 17.4023 12.6646 17.3621C12.6635 17.3218 12.6703 17.2817 12.6847 17.244C12.6991 17.2064 12.7208 17.1719 12.7485 17.1426L28.075 1L43.3831 17.1182C43.4118 17.1466 43.4346 17.1804 43.4501 17.2176C43.4657 17.2548 43.4737 17.2948 43.4737 17.3351C43.4737 17.3754 43.4657 17.4153 43.4501 17.4526C43.4346 17.4898 43.4118 17.5236 43.3831 17.552C43.3576 17.5834 43.3261 17.6093 43.2903 17.6282C43.2545 17.6471 43.2153 17.6586 43.1749 17.662V17.662Z" fill="#B88F34"/>
<path d="M25.8585 21.3768H19.7353V15.2668H25.8585V21.3768ZM20.3476 20.7658H25.2462V15.8778H20.3476V20.7658Z" fill="#B88F34"/>
<path d="M36.4149 21.3768H30.2916V15.2668H36.4149V21.3768ZM30.9039 20.7658H35.8025V15.8778H30.9039V20.7658Z" fill="#B88F34"/>
<path d="M13.8079 31.22H4.38426V15.7495C4.38426 15.6684 4.41652 15.5907 4.47393 15.5334C4.53135 15.4762 4.60922 15.444 4.69042 15.444C4.77113 15.4455 4.8481 15.4782 4.90518 15.5352C4.96226 15.5921 4.99502 15.6689 4.99659 15.7495V30.609H13.1956V23.4359H16.9124C16.9936 23.4359 17.0715 23.468 17.1289 23.5253C17.1863 23.5826 17.2186 23.6603 17.2186 23.7414C17.217 23.8219 17.1842 23.8987 17.1272 23.9556C17.0701 24.0126 16.9931 24.0453 16.9124 24.0469H13.8079V31.22Z" fill="#B88F34"/>
<path d="M0.747102 17.662C0.66946 17.6603 0.595235 17.6298 0.538911 17.5764C0.510215 17.548 0.487438 17.5142 0.471894 17.477C0.456351 17.4398 0.448349 17.3999 0.448349 17.3595C0.448349 17.3192 0.456351 17.2793 0.471894 17.242C0.487438 17.2048 0.510215 17.171 0.538911 17.1426L15.8531 1L22.1846 7.721C22.2131 7.74888 22.2357 7.78215 22.2512 7.81887C22.2667 7.85559 22.2746 7.89502 22.2746 7.93485C22.2746 7.97468 22.2667 8.01411 22.2512 8.05083C22.2357 8.08755 22.2131 8.12082 22.1846 8.1487C22.1571 8.17793 22.1239 8.20122 22.087 8.21714C22.0502 8.23306 22.0104 8.24128 21.9702 8.24128C21.9301 8.24128 21.8903 8.23306 21.8535 8.21714C21.8166 8.20122 21.7834 8.17793 21.7559 8.1487L15.8531 1.9165L0.973661 17.5642C0.945005 17.5956 0.909983 17.6206 0.870922 17.6374C0.83186 17.6543 0.789654 17.6626 0.747102 17.662Z" fill="#B88F34"/>
<path d="M13.6365 21.3768H7.51329V15.2668H12.5405C12.6217 15.2668 12.6995 15.299 12.757 15.3563C12.8144 15.4136 12.8466 15.4913 12.8466 15.5723C12.8466 15.6533 12.8144 15.731 12.757 15.7883C12.6995 15.8456 12.6217 15.8778 12.5405 15.8778H8.11949V20.7658H13.0181V18.8961C13.0181 18.8151 13.0503 18.7374 13.1078 18.6801C13.1652 18.6228 13.243 18.5906 13.3242 18.5906C13.4054 18.5906 13.4833 18.6228 13.5407 18.6801C13.5981 18.7374 13.6304 18.8151 13.6304 18.8961L13.6365 21.3768Z" fill="#B88F34"/>
</g>
<defs>
<clipPath id="clip0">
<rect width="43.475" height="30.55" fill="white" transform="translate(0 1)"/>
</clipPath>
</defs>
</svg>
