<svg width="32" height="32" viewBox="0 0 32 32" fill="none" xmlns="http://www.w3.org/2000/svg">
<g clip-path="url(#clip0)">
<path d="M22.5951 24.247H18.8813V18.1201H13.1447V24.247H9.39189V8.27948H13.1447V14.6274H18.8813V8.27948H22.5951V24.247ZM19.5057 23.5966H21.9447V8.92989H19.5317V15.2779H12.4943V8.92989H10.0423V23.5966H12.4943V17.4697H19.5317L19.5057 23.5966Z" fill="#B88F34"/>
<path d="M16.0065 30.8552C13.1212 30.8552 10.3006 29.9995 7.90151 28.3965C5.50243 26.7935 3.63257 24.5151 2.52839 21.8494C1.42421 19.1836 1.13531 16.2504 1.69822 13.4204C2.26112 10.5905 3.65055 7.99108 5.6908 5.95083C7.73106 3.91058 10.3305 2.52115 13.1604 1.95824C15.9903 1.39534 18.9236 1.68424 21.5893 2.78842C24.2551 3.89259 26.5335 5.76245 28.1365 8.16154C29.7395 10.5606 30.5951 13.3812 30.5951 16.2665C30.59 20.1341 29.0513 23.8418 26.3165 26.5765C23.5817 29.3113 19.8741 30.85 16.0065 30.8552V30.8552ZM16.0065 2.32833C13.2498 2.32833 10.555 3.14579 8.26286 4.67734C5.97073 6.20889 4.18424 8.38574 3.12929 10.9326C2.07434 13.4795 1.79832 16.282 2.33612 18.9857C2.87393 21.6895 4.20142 24.173 6.15071 26.1223C8.10001 28.0716 10.5836 29.3991 13.2873 29.9369C15.9911 30.4747 18.7936 30.1987 21.3404 29.1438C23.8873 28.0888 26.0642 26.3023 27.5957 24.0102C29.1273 21.7181 29.9447 19.0233 29.9447 16.2665C29.9413 12.571 28.4717 9.02772 25.8585 6.41454C23.2453 3.80137 19.7021 2.33177 16.0065 2.32833V2.32833Z" fill="#B88F34"/>
<path d="M16.0065 32.26C12.8415 32.2613 9.74712 31.3238 7.11494 29.5662C4.48276 27.8086 2.43099 25.3098 1.21918 22.386C0.00737113 19.4621 -0.310031 16.2445 0.307126 13.1402C0.924282 10.0359 2.44827 7.18434 4.6863 4.94631C6.92433 2.70828 9.77585 1.18429 12.8802 0.567135C15.9845 -0.0500208 19.2021 0.267381 22.1259 1.47919C25.0498 2.691 27.5486 4.74277 29.3062 7.37495C31.0638 10.0071 32.0013 13.1015 32 16.2665C31.9948 20.5067 30.3082 24.5717 27.3099 27.5699C24.3117 30.5682 20.2467 32.2548 16.0065 32.26V32.26ZM16.0065 0.916926C12.9704 0.91564 10.002 1.81478 7.47696 3.50064C4.95188 5.18649 2.98347 7.58332 1.8207 10.388C0.657926 13.1926 0.353026 16.2791 0.944558 19.2571C1.53609 22.235 2.99748 24.9707 5.1439 27.118C7.29032 29.2653 10.0253 30.7279 13.0031 31.3207C15.9808 31.9135 19.0674 31.6099 21.8725 30.4483C24.6777 29.2867 27.0753 27.3193 28.7623 24.795C30.4492 22.2706 31.3496 19.3027 31.3496 16.2665C31.3444 12.1983 29.7265 8.29801 26.8504 5.42071C23.9743 2.54341 20.0748 0.92381 16.0065 0.916926Z" fill="#B88F34"/>
</g>
<defs>
<clipPath id="clip0">
<rect width="32" height="32" fill="white"/>
</clipPath>
</defs>
</svg>
