<svg width="40" height="32" viewBox="0 0 40 32" fill="none" xmlns="http://www.w3.org/2000/svg">
<path d="M39.4266 32H36.9548C35.4783 31.9992 34.0222 31.6564 32.7005 30.9983L0 14.6968L0.286218 14.1179L32.9932 30.3998C34.2254 31.0084 35.5805 31.3266 36.9548 31.33H39.4266V32Z" fill="#B88F34"/>
<path d="M4.86289 1.07099L4.60309 1.66736L27.2053 11.5138L27.4651 10.9175L4.86289 1.07099Z" fill="#B88F34"/>
<path d="M7.38482 0.362995L5.6004 3.94354L6.18261 4.23369L7.96702 0.653144L7.38482 0.362995Z" fill="#B88F34"/>
<path d="M22.0259 24.0834L21.4339 23.8232C22.0844 22.3205 20.224 20.4276 20.2045 20.408L19.9117 20.1153L20.263 19.9007C21.6226 19.0745 25.2718 16.6482 25.8638 15.1976C26.5143 13.6038 24.9921 12.3484 24.9791 12.3354L21.7266 10.4359V8.48443L27.5811 11.0019L28.0755 12.3874C28.2749 13.2832 28.7898 14.0774 29.5261 14.6251L34.1186 16.2253C34.2487 16.2969 35.9855 17.2726 36.8767 16.0237C36.9551 15.9279 37.0095 15.8147 37.0355 15.6937C37.0615 15.5727 37.0584 15.4472 37.0263 15.3277C36.8247 14.6186 35.6278 13.9941 35.1854 13.812L31.2824 11.8605L31.9329 4.05454L32.3883 6.33779C32.4468 6.63051 33.5267 7.33305 34.652 7.71034C35.1659 7.87947 35.953 7.32004 36.6881 6.78013C37.0604 6.49903 37.4492 6.24053 37.8525 6.00603C38.0366 5.86996 38.1897 5.69641 38.3018 5.49683C38.414 5.29724 38.4825 5.07616 38.503 4.84815C38.6011 4.29141 38.5848 3.72051 38.455 3.17027C38.3253 2.62004 38.0849 2.10198 37.7484 1.6477C36.7141 0.424768 34.6455 0.470303 33.4291 1.27692C32.2126 2.08354 31.9524 3.84638 31.9524 3.87891L31.8158 4.68553L31.3605 4.03503C30.8307 3.38184 30.0982 2.92401 29.2789 2.73403C26.163 1.9079 18.5847 3.80085 16.7503 4.55543C14.9159 5.31 13.8166 6.20769 13.719 8.45841C13.6214 10.7091 14.5712 11.1515 14.6102 11.171L20.3931 14.4235L14.7338 20.4015L14.2589 19.9527L19.3718 14.5341L14.337 11.7174C14.3045 11.7174 12.9774 11.0669 13.0945 8.39986C13.2116 5.73283 14.5516 4.71805 16.5292 3.90493C18.5067 3.09181 26.1695 1.17284 29.4741 2.05752C30.2204 2.24354 30.9117 2.60479 31.4906 3.11132C31.7398 2.14921 32.3058 1.29908 33.0973 0.697977C34.5674 -0.284274 37.0003 -0.323303 38.3013 1.18585C38.6993 1.71442 38.9838 2.31944 39.1371 2.96305C39.2905 3.60665 39.3093 4.27499 39.1925 4.92621C39.1582 5.25176 39.0516 5.56553 38.8805 5.84463C38.7095 6.12373 38.4782 6.36111 38.2037 6.53944C37.8267 6.7626 37.4619 7.0058 37.1109 7.268C36.2327 7.9185 35.322 8.56899 34.5089 8.28928C33.7516 8.03248 33.0369 7.66415 32.3883 7.19645L32.037 11.4572L35.4847 13.194C35.6538 13.2656 37.3581 13.9811 37.6833 15.1455C37.7382 15.3558 37.7444 15.5757 37.7016 15.7888C37.6587 16.0018 37.568 16.2022 37.4361 16.375C36.4409 17.7605 34.6715 17.2531 33.8779 16.7913L29.2139 15.1585C28.3201 14.5143 27.6967 13.5618 27.464 12.485L27.0867 11.4637L22.3836 9.44717V10.0977L25.3499 11.8345C26.0654 12.4004 27.1518 13.851 26.4688 15.4773C25.7857 17.1035 22.0909 19.5559 20.946 20.2779C21.499 20.9154 22.6894 22.5937 22.0259 24.0834Z" fill="#B88F34"/>
</svg>
