<svg width="86" height="32" viewBox="0 0 86 32" fill="none" xmlns="http://www.w3.org/2000/svg">
<path d="M6.33293 11.8956H5.21073V4.37689L3.47132 5.44298L3 4.76405L6.15338 2.51965H6.35538L6.33293 11.8956Z" fill="#B88F34"/>
<path d="M8.5437 5.5664C8.89069 4.94947 9.1423 4.28357 9.28996 3.59133C9.17762 3.60845 9.06286 3.60007 8.9542 3.56682C8.84553 3.53356 8.74574 3.47628 8.66221 3.39923C8.57869 3.32217 8.51357 3.2273 8.47169 3.12166C8.42981 3.01602 8.41223 2.90231 8.42026 2.78895C8.42174 2.5801 8.50575 2.38031 8.65396 2.23315C8.80217 2.08599 9.00255 2.00341 9.21141 2.00341C9.33256 1.99243 9.45465 2.00802 9.56916 2.04909C9.68367 2.09016 9.78783 2.15573 9.87438 2.24121C9.96093 2.32669 10.0278 2.43003 10.0703 2.54402C10.1128 2.65801 10.1299 2.77989 10.1204 2.90117C9.9997 3.94454 9.61332 4.93949 8.99819 5.79084L8.5437 5.5664Z" fill="#B88F34"/>
<path d="M18.9465 7.22723C18.9465 9.25841 18.116 12.019 15.3554 12.019C12.5948 12.019 11.7756 9.25841 11.7756 7.22723C11.7756 5.28022 12.606 2.45789 15.3554 2.45789C18.1048 2.45789 18.9465 5.28022 18.9465 7.22723ZM17.8243 7.22723C17.8243 6.27336 17.5381 3.42859 15.3666 3.42859C13.1952 3.42859 12.909 6.27336 12.909 7.22723C12.909 8.1811 13.2008 11.11 15.3554 11.11C17.51 11.11 17.813 8.1811 17.813 7.22723H17.8243Z" fill="#B88F34"/>
<path d="M27.7725 7.22723C27.7725 9.25841 26.9477 12.019 24.1815 12.019C21.4153 12.019 20.6073 9.25841 20.6073 7.22723C20.6073 5.28022 21.4321 2.45789 24.1815 2.45789C26.9309 2.45789 27.7725 5.28022 27.7725 7.22723ZM26.6503 7.22723C26.6503 6.27336 26.3586 3.42859 24.1871 3.42859C22.0157 3.42859 21.7295 6.27336 21.7295 7.22723C21.7295 8.1811 22.0269 11.11 24.1815 11.11C26.3361 11.11 26.6447 8.1811 26.6447 7.22723H26.6503Z" fill="#B88F34"/>
<path d="M36.6043 7.22723C36.6043 9.25841 35.7739 12.019 33.0133 12.019C30.2526 12.019 29.4334 9.25841 29.4334 7.22723C29.4334 5.28022 30.2639 2.45789 33.0133 2.45789C35.7626 2.45789 36.6043 5.28022 36.6043 7.22723ZM35.4821 7.22723C35.4821 6.27336 35.1903 3.42859 33.0245 3.42859C30.8586 3.42859 30.5612 6.27336 30.5612 7.22723C30.5612 8.1811 30.853 11.11 33.0357 11.11C35.2184 11.11 35.4709 8.1811 35.4709 7.22723H35.4821Z" fill="#B88F34"/>
<path d="M13.5599 16.8781C14.6092 17.2092 15.8941 17.6805 15.8941 19.1225C15.8941 20.2447 14.8336 21.0247 13.4197 21.0247C12.5302 21.0539 11.6508 20.8301 10.8835 20.3794C11.0069 20.1045 11.1416 19.8688 11.265 19.5882C11.903 19.9367 12.6145 20.1289 13.3411 20.1493C14.0705 20.1493 14.7046 19.7678 14.7046 19.1562C14.7046 18.3426 13.919 18.1069 13.0493 17.8152C12.0562 17.4841 10.9508 17.1419 10.9508 15.8289C10.9508 14.6113 11.8486 13.9211 13.1335 13.9211C13.9656 13.9287 14.7857 14.1203 15.535 14.4822C15.3835 14.8021 15.2993 15.0433 15.1478 15.3239C14.5949 15.0666 14.0035 14.9016 13.3972 14.8357C12.6902 14.8357 12.0674 15.0265 12.0281 15.7335C11.9889 16.4405 12.7295 16.6313 13.5599 16.8781Z" fill="#B88F34"/>
<path d="M17.5549 17.4168C17.5549 15.9411 18.3685 13.8707 20.9215 13.8707C21.3445 13.8494 21.7667 13.9253 22.1558 14.0926C22.5448 14.2599 22.8904 14.5141 23.1659 14.8358C23.2164 14.6282 23.3567 14.241 23.4521 13.9773H24.058V23.6787H22.9358V20.4973C22.345 20.8126 21.6866 20.9801 21.0169 20.9854C18.3517 20.9854 17.5549 18.8701 17.5549 17.4168ZM18.6771 17.4168C18.6771 18.208 19.0755 20.0316 21.0954 20.0316C21.7512 20.002 22.3868 19.7966 22.9358 19.4368V15.8289C22.7033 15.5435 22.4109 15.3126 22.0793 15.1527C21.7477 14.9927 21.385 14.9075 21.0169 14.9031C19.0082 14.9031 18.6995 16.7211 18.6995 17.4168H18.6771Z" fill="#B88F34"/>
<path d="M27.4247 20.9012H26.3025V13.9941H26.8636L27.1385 14.8469C27.7369 14.2518 28.5394 13.9068 29.3829 13.8818C29.8135 13.8421 30.2471 13.9154 30.6407 14.0945C31.0343 14.2736 31.3744 14.5523 31.6273 14.903C31.9201 14.5825 32.2763 14.3262 32.6732 14.1504C33.0702 13.9747 33.4993 13.8832 33.9334 13.8818C36.4584 13.8818 36.5874 15.7896 36.5874 17.3382V20.9012H35.4652V17.0072C35.4652 16.2721 35.4652 14.9479 33.9054 14.8357C33.5191 14.8155 33.1344 14.8996 32.7918 15.0793C32.4492 15.259 32.1613 15.5276 31.9584 15.8569C32.0342 16.3469 32.0661 16.8426 32.0538 17.3382V20.9012H30.9316V17.0745C30.8923 16.3843 30.9596 14.976 29.3717 14.8638C28.9831 14.8602 28.6 14.9563 28.2592 15.1429C27.9183 15.3296 27.631 15.6005 27.4247 15.9299V20.9012Z" fill="#B88F34"/>
<path d="M55.8612 30.1875C54.0169 30.178 52.189 29.8398 50.4634 29.1887C43.3094 26.5571 41.6822 20.7722 41.6149 20.5422L41.542 20.2728L41.772 20.1157C44.0126 18.7674 46.6069 18.1242 49.2178 18.2697H49.4479L49.5489 18.4773C49.9457 19.2555 50.3956 20.0054 50.8955 20.7217C55.6929 27.5278 62.3139 27.5952 62.4822 27.5952H63.7391L62.7179 28.319C60.6593 29.5876 58.2788 30.2363 55.8612 30.1875V30.1875ZM42.4622 20.587C42.8774 21.771 44.8188 26.2598 50.7328 28.4312C52.3973 29.0889 54.1756 29.4101 55.965 29.3764C57.7544 29.3427 59.5194 28.9547 61.158 28.2348C58.8631 27.8926 54.0545 26.5515 50.2558 21.1425C49.7791 20.4658 49.3462 19.7592 48.9597 19.0272C46.6945 18.9677 44.4535 19.5057 42.4622 20.587V20.587Z" fill="#B88F34"/>
<path d="M69.1144 30.1874C66.6961 30.2313 64.3168 29.5746 62.2634 28.2965L61.2422 27.5727H62.4934C62.6561 27.5727 69.2266 27.5054 74.0464 20.6993C74.5445 19.9828 74.9926 19.2329 75.3875 18.4549L75.4941 18.2472H75.7241C78.3453 18.0981 80.9509 18.7393 83.2036 20.0877L83.4337 20.2448L83.3607 20.5141C83.299 20.7554 81.6774 26.5291 74.5178 29.1606C72.7919 29.8209 70.9622 30.1686 69.1144 30.1874V30.1874ZM63.8232 28.2517C65.4605 28.9723 67.2243 29.3611 69.0128 29.3958C70.8013 29.4305 72.5789 29.1103 74.2428 28.4537C80.1512 26.2766 82.0982 21.771 82.5134 20.5983C80.5145 19.5103 78.2627 18.972 75.9879 19.0384C75.6027 19.7712 75.1697 20.4778 74.6917 21.1537C70.8931 26.5291 66.1406 27.8869 63.8232 28.2292V28.2517Z" fill="#B88F34"/>
<path d="M62.5102 28.347H61.287L62.297 27.6457C62.3475 27.6064 67.779 23.718 67.779 15.352C67.781 14.0447 67.6418 12.741 67.3638 11.4636L67.3133 11.2391L67.4816 11.0876C72.0545 6.91866 76.88 6.86254 77.0876 6.85693H77.3626L77.4579 7.12065C77.5365 7.33948 79.332 12.5745 76.1225 18.8364C75.7107 19.643 75.2419 20.4193 74.7198 21.1594C69.726 28.1899 63.0713 28.347 62.5102 28.347ZM68.1493 11.5141C68.4091 12.7749 68.5389 14.0591 68.5365 15.3464C68.5365 21.9842 65.3719 25.8726 63.7054 27.4549C65.8544 27.1126 70.4386 25.7716 74.0521 20.7217C74.5501 20.0053 74.9982 19.2554 75.3931 18.4773C77.1678 15.1582 77.6687 11.305 76.8015 7.64247C73.5803 7.97655 70.5495 9.3288 68.1493 11.5028V11.5141Z" fill="#B88F34"/>
<path d="M62.4654 28.347C61.9043 28.347 55.2216 28.1899 50.2558 21.1425C49.7341 20.4022 49.2653 19.626 48.8531 18.8196C45.6436 12.5577 47.4391 7.32263 47.5177 7.10381L47.6131 6.84009H47.888C48.09 6.84009 52.9042 6.90181 57.466 11.0483L57.6343 11.1998L57.5894 11.4243C57.3055 12.7141 57.1643 14.0313 57.1686 15.352C57.1686 23.7685 62.6561 27.6064 62.7123 27.6457L63.7335 28.347H62.4934H62.4654ZM48.1854 7.64246C47.3128 11.2975 47.8015 15.1452 49.5601 18.4661C49.9569 19.2442 50.4069 19.9941 50.9067 20.7105C54.4978 25.8053 59.11 27.1238 61.2758 27.4437C59.5925 25.8558 56.3943 21.9729 56.3943 15.3351C56.3909 14.0401 56.5226 12.7482 56.787 11.4804C54.4005 9.31961 51.3876 7.97531 48.1854 7.64246V7.64246Z" fill="#B88F34"/>
<path d="M62.4934 28.4312L62.269 28.2741C62.0277 28.1113 56.383 24.1556 56.383 15.3351C56.3798 13.9635 56.5265 12.5956 56.8207 11.2559C58.1617 5.22409 62.067 2.40176 62.2297 2.27832L62.4597 2.1156L62.6842 2.27832C62.8525 2.39054 66.7634 5.22409 68.0988 11.2559C68.3926 12.5881 68.5394 13.9485 68.5364 15.3127C68.5364 24.1331 62.9254 28.0889 62.7122 28.2516L62.4934 28.4312ZM62.4597 3.10313C59.9785 5.27665 58.2695 8.19655 57.5894 11.4242C57.3054 12.7141 57.1643 14.0312 57.1686 15.3519C57.1686 22.7641 61.4497 26.6469 62.4878 27.4773C63.5146 26.6469 67.7509 22.7641 67.7509 15.3519C67.753 14.0446 67.6138 12.7409 67.3357 11.4635C66.6616 8.22109 64.95 5.28634 62.4597 3.10313V3.10313Z" fill="#B88F34"/>
</svg>
