<svg width="86" height="32" viewBox="0 0 86 32" fill="none" xmlns="http://www.w3.org/2000/svg">
<g clip-path="url(#clip0)">
<path d="M84.8472 30.8082C84.7674 30.8082 84.6908 30.7765 84.6343 30.72C84.5779 30.6636 84.5462 30.587 84.5462 30.5072V17.8875C84.5446 17.1662 84.2573 16.4749 83.7473 15.9649C83.2373 15.4549 82.546 15.1676 81.8247 15.1661H44.4955C44.1377 15.1653 43.7831 15.2351 43.4522 15.3715C43.1214 15.5079 42.8207 15.7082 42.5673 15.961C42.314 16.2138 42.113 16.5141 41.9758 16.8446C41.8387 17.1752 41.7681 17.5296 41.7681 17.8875V30.5312C41.7681 30.6111 41.7364 30.6876 41.6799 30.7441C41.6235 30.8006 41.5469 30.8323 41.4671 30.8323C41.3872 30.8323 41.3106 30.8006 41.2542 30.7441C41.1977 30.6876 41.166 30.6111 41.166 30.5312V17.8875C41.166 17.0071 41.5153 16.1626 42.1373 15.5395C42.7593 14.9164 43.6031 14.5656 44.4835 14.564H81.8127C82.2499 14.5632 82.6831 14.6485 83.0873 14.8151C83.4916 14.9817 83.8591 15.2263 84.1688 15.5349C84.4785 15.8435 84.7244 16.2101 84.8925 16.6138C85.0606 17.0174 85.1475 17.4502 85.1482 17.8875V30.5312C85.1422 30.6068 85.1078 30.6774 85.052 30.7287C84.9962 30.78 84.923 30.8084 84.8472 30.8082Z" fill="#B88F34"/>
<path d="M81.9815 13.468C81.9021 13.4665 81.8264 13.4343 81.7703 13.3781C81.7142 13.322 81.682 13.2463 81.6804 13.167V3.74436C81.6804 2.67265 80.6449 1.79361 79.3624 1.79361H46.9462C45.6698 1.79361 44.6282 2.67265 44.6282 3.74436V13.167C44.6282 13.2468 44.5965 13.3234 44.54 13.3799C44.4836 13.4363 44.407 13.468 44.3272 13.468C44.2478 13.4665 44.1721 13.4343 44.116 13.3781C44.0599 13.322 44.0277 13.2463 44.0261 13.167V3.74436C44.0261 2.33549 45.3387 1.19153 46.9462 1.19153H79.3624C80.976 1.19153 82.2825 2.33549 82.2825 3.74436V13.167C82.2825 13.2468 82.2508 13.3234 82.1944 13.3799C82.1379 13.4363 82.0613 13.468 81.9815 13.468Z" fill="#B88F34"/>
<path d="M84.8472 26.1841H41.4671C41.3872 26.1841 41.3106 26.1524 41.2542 26.0959C41.1977 26.0395 41.166 25.9629 41.166 25.8831C41.166 25.8032 41.1977 25.7267 41.2542 25.6702C41.3106 25.6137 41.3872 25.582 41.4671 25.582H84.8472C84.927 25.582 85.0036 25.6137 85.0601 25.6702C85.1165 25.7267 85.1482 25.8032 85.1482 25.8831C85.1482 25.9629 85.1165 26.0395 85.0601 26.0959C85.0036 26.1524 84.927 26.1841 84.8472 26.1841Z" fill="#B88F34"/>
<path d="M60.505 13.4678C60.4252 13.4678 60.3486 13.4361 60.2921 13.3796C60.2357 13.3232 60.204 13.2466 60.204 13.1668V8.06112C60.2024 7.77154 60.0862 7.49436 59.8809 7.29016C59.6756 7.08596 59.3978 6.97134 59.1082 6.97135H51.4376C51.148 6.97134 50.8702 7.08596 50.6649 7.29016C50.4596 7.49436 50.3434 7.77154 50.3418 8.06112V13.1668C50.3418 13.2466 50.3101 13.3232 50.2537 13.3796C50.1972 13.4361 50.1206 13.4678 50.0408 13.4678C49.9614 13.4663 49.8857 13.4341 49.8296 13.3779C49.7735 13.3218 49.7413 13.2461 49.7397 13.1668V8.06112C49.7413 7.61186 49.9209 7.18154 50.2392 6.86443C50.5574 6.54732 50.9884 6.36926 51.4376 6.36926H59.1082C59.5574 6.36926 59.9884 6.54732 60.3066 6.86443C60.6249 7.18154 60.8045 7.61186 60.806 8.06112V13.1668C60.8045 13.2461 60.7723 13.3218 60.7162 13.3779C60.66 13.4341 60.5844 13.4663 60.505 13.4678Z" fill="#B88F34"/>
<path d="M59.0059 13.4384C58.9261 13.4384 58.8495 13.4067 58.793 13.3502C58.7366 13.2937 58.7049 13.2172 58.7049 13.1373V9.52483C58.7049 9.34119 58.6319 9.16508 58.5021 9.03523C58.3722 8.90538 58.1961 8.83243 58.0125 8.83243H52.5335C52.4426 8.83243 52.3525 8.85034 52.2685 8.88514C52.1845 8.91993 52.1082 8.97093 52.0439 9.03523C51.9796 9.09952 51.9286 9.17585 51.8938 9.25986C51.859 9.34386 51.8411 9.4339 51.8411 9.52483V13.1373C51.8411 13.2172 51.8094 13.2937 51.7529 13.3502C51.6965 13.4067 51.6199 13.4384 51.5401 13.4384C51.4607 13.4368 51.385 13.4046 51.3289 13.3485C51.2728 13.2924 51.2406 13.2167 51.239 13.1373V9.52483C51.239 9.18151 51.3754 8.85225 51.6182 8.60949C51.8609 8.36673 52.1902 8.23035 52.5335 8.23035H58.0125C58.1825 8.23035 58.3508 8.26383 58.5079 8.32888C58.6649 8.39394 58.8076 8.48929 58.9278 8.60949C59.048 8.7297 59.1434 8.8724 59.2084 9.02945C59.2735 9.18651 59.307 9.35483 59.307 9.52483V13.1373C59.3054 13.2167 59.2732 13.2924 59.2171 13.3485C59.161 13.4046 59.0853 13.4368 59.0059 13.4384Z" fill="#B88F34"/>
<path d="M74.4856 13.4384C74.4058 13.4384 74.3292 13.4067 74.2727 13.3502C74.2163 13.2937 74.1846 13.2172 74.1846 13.1373V9.52483C74.1846 9.4339 74.1666 9.34386 74.1318 9.25986C74.0971 9.17585 74.0461 9.09952 73.9818 9.03523C73.9175 8.97093 73.8411 8.91993 73.7571 8.88514C73.6731 8.85034 73.5831 8.83243 73.4922 8.83243H68.0132C67.8296 8.83243 67.6535 8.90538 67.5236 9.03523C67.3938 9.16508 67.3208 9.34119 67.3208 9.52483V13.1373C67.3208 13.2172 67.2891 13.2937 67.2327 13.3502C67.1762 13.4067 67.0996 13.4384 67.0198 13.4384C66.9399 13.4384 66.8634 13.4067 66.8069 13.3502C66.7505 13.2937 66.7188 13.2172 66.7188 13.1373V9.52483C66.7188 9.18151 66.8551 8.85225 67.0979 8.60949C67.3407 8.36673 67.6699 8.23035 68.0132 8.23035H73.4922C73.8355 8.23035 74.1647 8.36673 74.4075 8.60949C74.6503 8.85225 74.7866 9.18151 74.7866 9.52483V13.1373C74.7851 13.2167 74.7529 13.2924 74.6968 13.3485C74.6406 13.4046 74.565 13.4368 74.4856 13.4384Z" fill="#B88F34"/>
<path d="M75.9786 13.4684C75.8988 13.4684 75.8222 13.4366 75.7658 13.3802C75.7093 13.3237 75.6776 13.2472 75.6776 13.1673V8.06165C75.676 7.77207 75.5598 7.4949 75.3545 7.2907C75.1492 7.0865 74.8714 6.97187 74.5818 6.97188H66.9113C66.6217 6.97187 66.3439 7.0865 66.1385 7.2907C65.9332 7.4949 65.8171 7.77207 65.8155 8.06165V13.1673C65.8155 13.2472 65.7837 13.3237 65.7273 13.3802C65.6708 13.4366 65.5943 13.4684 65.5144 13.4684C65.4351 13.4668 65.3594 13.4346 65.3033 13.3785C65.2471 13.3224 65.2149 13.2467 65.2134 13.1673V8.06165C65.215 7.61239 65.3946 7.18207 65.7128 6.86496C66.031 6.54785 66.462 6.36979 66.9113 6.36979H74.5818C74.8053 6.36821 75.0268 6.41075 75.2338 6.49499C75.4408 6.57923 75.6292 6.70351 75.788 6.86069C75.9469 7.01787 76.0732 7.20487 76.1596 7.41096C76.246 7.61705 76.2909 7.83817 76.2917 8.06165V13.1673C76.2909 13.2077 76.2822 13.2474 76.266 13.2844C76.2499 13.3213 76.2266 13.3547 76.1975 13.3827C76.1685 13.4107 76.1342 13.4326 76.0966 13.4473C76.059 13.462 76.0189 13.4692 75.9786 13.4684Z" fill="#B88F34"/>
<path d="M6.26325 15.1719H4.55333V3.97918L1.95835 5.56265L1.25391 4.55115L5.95618 1.19153H6.26325V15.1719Z" fill="#B88F34"/>
<path d="M19.5031 8.51318V9.87389H13.8977V8.51318H19.5031Z" fill="#B88F34"/>
<path d="M33.857 15.172H32.1471V12.3061H25.8975V11.403L32.4782 1.23376H33.857V10.8671H35.8379V12.288H33.857V15.172ZM27.9385 10.8852H32.1531V4.32847L27.9385 10.8852Z" fill="#B88F34"/>
</g>
<defs>
<clipPath id="clip0">
<rect width="85.3333" height="32" fill="white"/>
</clipPath>
</defs>
</svg>
