<svg width="64" height="32" viewBox="0 0 64 32" fill="none" xmlns="http://www.w3.org/2000/svg">
<path d="M9.05969 2.03815C6.66043 3.42399 5.43332 4.96245 4.78619 6.739C5.50378 6.24028 6.35438 5.96809 7.22819 5.95756C10.9522 5.95756 11.7337 8.76586 11.7337 10.3837C11.7352 10.9622 11.6173 11.5347 11.3874 12.0656C11.1576 12.5965 10.8207 13.0742 10.3979 13.469C9.97502 13.8638 9.47528 14.1671 8.9299 14.36C8.38452 14.5529 7.80521 14.6312 7.22819 14.59C6.63716 14.6111 6.04809 14.5109 5.49731 14.2954C4.94653 14.08 4.44575 13.754 4.02585 13.3376C3.60595 12.9211 3.27585 12.423 3.05592 11.874C2.83599 11.325 2.73089 10.7368 2.74712 10.1456C2.68865 8.23873 3.19302 6.35687 4.19729 4.73483C5.20156 3.1128 6.66127 1.82242 8.39425 1.02472L9.05969 2.03815ZM10.2257 10.2433C10.2438 9.8512 10.1802 9.45965 10.039 9.09345C9.89774 8.72725 9.68195 8.3944 9.40527 8.11601C9.1286 7.83761 8.7971 7.61975 8.43178 7.47624C8.06647 7.33273 7.67532 7.26671 7.28314 7.28235C5.31733 7.28235 4.38326 8.55219 4.32221 10.17C4.30909 10.5667 4.37602 10.962 4.51901 11.3322C4.662 11.7025 4.87812 12.0401 5.15447 12.325C5.43082 12.6099 5.76173 12.8362 6.12746 12.9904C6.49319 13.1446 6.88623 13.2236 7.28314 13.2225C7.67573 13.2337 8.06644 13.1641 8.43096 13.0178C8.79547 12.8716 9.12601 12.6519 9.40201 12.3725C9.678 12.0931 9.89356 11.7598 10.0353 11.3935C10.177 11.0272 10.2418 10.6357 10.2257 10.2433V10.2433Z" fill="#B88F34"/>
<path d="M61.459 30.75C61.378 30.75 61.3004 30.7178 61.2431 30.6606C61.1859 30.6033 61.1537 30.5257 61.1537 30.4447V17.6242C61.1537 16.894 60.8636 16.1937 60.3473 15.6773C59.8309 15.161 59.1306 14.8709 58.4003 14.8709H20.5493C19.8185 14.8709 19.1176 15.1608 18.6002 15.6769C18.0829 16.1931 17.7915 16.8934 17.7898 17.6242V30.4447C17.7898 30.5257 17.7577 30.6033 17.7004 30.6606C17.6432 30.7178 17.5656 30.75 17.4846 30.75C17.4036 30.75 17.326 30.7178 17.2687 30.6606C17.2115 30.6033 17.1793 30.5257 17.1793 30.4447V17.6242C17.181 16.7315 17.5367 15.8759 18.1685 15.2453C18.8004 14.6146 19.6566 14.2604 20.5493 14.2604H58.4003C59.2925 14.2604 60.1481 14.6148 60.779 15.2456C61.4098 15.8765 61.7642 16.7321 61.7642 17.6242V30.4447C61.7642 30.5257 61.732 30.6033 61.6748 30.6606C61.6175 30.7178 61.5399 30.75 61.459 30.75Z" fill="#B88F34"/>
<path d="M58.5591 13.1676C58.4781 13.1676 58.4005 13.1354 58.3432 13.0782C58.286 13.0209 58.2538 12.9433 58.2538 12.8623V3.34463C58.2538 2.25183 57.1977 1.3605 55.9034 1.3605H23.0463C21.752 1.3605 20.6958 2.25183 20.6958 3.34463V12.8623C20.6943 12.9428 20.6616 13.0195 20.6047 13.0764C20.5478 13.1334 20.471 13.166 20.3906 13.1676C20.3096 13.1676 20.232 13.1354 20.1747 13.0782C20.1175 13.0209 20.0853 12.9433 20.0853 12.8623V3.34463C20.0853 1.91606 21.4101 0.75 23.0463 0.75H55.9156C57.5456 0.75 58.8765 1.91606 58.8765 3.34463V12.8623C58.8757 12.9032 58.8669 12.9436 58.8505 12.981C58.8341 13.0185 58.8105 13.0524 58.781 13.0807C58.7516 13.1091 58.7168 13.1313 58.6787 13.1462C58.6406 13.1611 58.6 13.1684 58.5591 13.1676Z" fill="#B88F34"/>
<path d="M61.4589 26.0614H17.4724C17.3914 26.0614 17.3138 26.0292 17.2565 25.972C17.1993 25.9147 17.1671 25.8371 17.1671 25.7561C17.1687 25.6756 17.2013 25.5989 17.2583 25.542C17.3152 25.4851 17.3919 25.4524 17.4724 25.4509H61.4589C61.5399 25.4509 61.6175 25.483 61.6748 25.5403C61.732 25.5975 61.7642 25.6752 61.7642 25.7561C61.7642 25.8371 61.732 25.9147 61.6748 25.972C61.6175 26.0292 61.5399 26.0614 61.4589 26.0614Z" fill="#B88F34"/>
<path d="M36.7764 13.1676C36.6954 13.1676 36.6178 13.1354 36.5606 13.0782C36.5033 13.0209 36.4711 12.9433 36.4711 12.8623V7.68531C36.4711 7.39224 36.3547 7.11118 36.1475 6.90395C35.9403 6.69672 35.6592 6.5803 35.3661 6.5803H27.5823C27.2892 6.5803 27.0081 6.69672 26.8009 6.90395C26.5937 7.11118 26.4773 7.39224 26.4773 7.68531V12.8623C26.4773 12.9433 26.4451 13.0209 26.3878 13.0782C26.3306 13.1354 26.253 13.1676 26.172 13.1676C26.091 13.1676 26.0134 13.1354 25.9562 13.0782C25.8989 13.0209 25.8668 12.9433 25.8668 12.8623V7.68531C25.8668 7.46002 25.9111 7.23694 25.9973 7.02881C26.0835 6.82068 26.2099 6.63156 26.3692 6.47226C26.5285 6.31296 26.7176 6.1866 26.9258 6.10038C27.1339 6.01417 27.357 5.9698 27.5823 5.9698H35.3661C35.5919 5.96899 35.8157 6.01277 36.0245 6.09863C36.2334 6.18448 36.4232 6.31072 36.5831 6.4701C36.7431 6.62948 36.87 6.81886 36.9566 7.0274C37.0432 7.23593 37.0878 7.45951 37.0878 7.68531V12.8623C37.0878 12.903 37.0797 12.9432 37.0639 12.9806C37.0482 13.018 37.0252 13.052 36.9962 13.0804C36.9672 13.1088 36.9328 13.1312 36.8951 13.1461C36.8573 13.1611 36.817 13.1684 36.7764 13.1676Z" fill="#B88F34"/>
<path d="M35.2562 13.1127C35.1753 13.1127 35.0976 13.0805 35.0404 13.0233C34.9832 12.966 34.951 12.8884 34.951 12.8074V9.13832C34.951 8.95212 34.877 8.77354 34.7454 8.64188C34.6137 8.51021 34.4351 8.43625 34.2489 8.43625H28.6995C28.5133 8.43625 28.3347 8.51021 28.203 8.64188C28.0714 8.77354 27.9974 8.95212 27.9974 9.13832V12.8318C27.9974 12.9128 27.9652 12.9904 27.908 13.0477C27.8507 13.1049 27.7731 13.1371 27.6921 13.1371C27.6112 13.1371 27.5335 13.1049 27.4763 13.0477C27.4191 12.9904 27.3869 12.9128 27.3869 12.8318V9.13832C27.3869 8.7902 27.5252 8.45634 27.7713 8.21019C28.0175 7.96403 28.3514 7.82574 28.6995 7.82574H34.2489C34.597 7.82574 34.9309 7.96403 35.177 8.21019C35.4232 8.45634 35.5615 8.7902 35.5615 9.13832V12.8318C35.5553 12.9085 35.5205 12.98 35.4639 13.0321C35.4073 13.0841 35.3331 13.1129 35.2562 13.1127V13.1127Z" fill="#B88F34"/>
<path d="M50.9461 13.1127C50.8651 13.1127 50.7875 13.0805 50.7303 13.0233C50.673 12.966 50.6408 12.8884 50.6408 12.8074V9.13832C50.6408 8.95212 50.5669 8.77354 50.4352 8.64188C50.3036 8.51021 50.125 8.43625 49.9388 8.43625H44.4137C44.2275 8.43625 44.049 8.51021 43.9173 8.64188C43.7856 8.77354 43.7117 8.95212 43.7117 9.13832V12.8318C43.7117 12.9128 43.6795 12.9904 43.6223 13.0477C43.565 13.1049 43.4874 13.1371 43.4064 13.1371C43.3255 13.1371 43.2478 13.1049 43.1906 13.0477C43.1333 12.9904 43.1012 12.9128 43.1012 12.8318V9.13832C43.1012 8.7902 43.2395 8.45634 43.4856 8.21019C43.7318 7.96403 44.0656 7.82574 44.4137 7.82574H49.9632C50.1356 7.82574 50.3062 7.85969 50.4655 7.92566C50.6247 7.99162 50.7694 8.0883 50.8913 8.21019C51.0132 8.33207 51.1099 8.47677 51.1759 8.63602C51.2418 8.79527 51.2758 8.96595 51.2758 9.13832V12.8318C51.2727 12.872 51.2617 12.9111 51.2434 12.947C51.2252 12.9828 51.2 13.0148 51.1694 13.0409C51.1387 13.067 51.1032 13.0867 51.0649 13.0991C51.0266 13.1114 50.9862 13.116 50.9461 13.1127V13.1127Z" fill="#B88F34"/>
<path d="M52.4663 13.1676C52.3853 13.1676 52.3077 13.1354 52.2504 13.0782C52.1932 13.0209 52.161 12.9433 52.161 12.8623V7.68529C52.161 7.39223 52.0446 7.11117 51.8374 6.90394C51.6301 6.69671 51.3491 6.58029 51.056 6.58029H43.2721C42.9791 6.58029 42.698 6.69671 42.4908 6.90394C42.2835 7.11117 42.1671 7.39223 42.1671 7.68529V12.8623C42.1656 12.9428 42.1329 13.0195 42.076 13.0765C42.0191 13.1334 41.9423 13.166 41.8619 13.1676C41.7809 13.1676 41.7033 13.1354 41.646 13.0782C41.5888 13.0209 41.5566 12.9433 41.5566 12.8623V7.68529C41.5566 7.23031 41.7374 6.79397 42.0591 6.47225C42.3808 6.15053 42.8171 5.96979 43.2721 5.96979H51.056C51.511 5.96979 51.9473 6.15053 52.2691 6.47225C52.5908 6.79397 52.7715 7.23031 52.7715 7.68529V12.8623C52.7715 12.9433 52.7394 13.0209 52.6821 13.0782C52.6249 13.1354 52.5472 13.1676 52.4663 13.1676Z" fill="#B88F34"/>
</svg>
