<svg width="72" height="32" viewBox="0 0 72 32" fill="none" xmlns="http://www.w3.org/2000/svg">
<path d="M68.8157 30.64C68.7348 30.64 68.6572 30.6079 68.6 30.5507C68.5428 30.4935 68.5107 30.416 68.5107 30.3351V17.5276C68.5091 16.7986 68.2188 16.0999 67.7033 15.5845C67.1878 15.069 66.4892 14.7787 65.7602 14.7771H27.9476C27.218 14.7787 26.5187 15.0688 26.0023 15.5841C25.4858 16.0994 25.1942 16.7981 25.1909 17.5276V30.3351C25.1909 30.416 25.1588 30.4935 25.1016 30.5507C25.0444 30.6079 24.9669 30.64 24.886 30.64C24.8051 30.64 24.7276 30.6079 24.6704 30.5507C24.6132 30.4935 24.5811 30.416 24.5811 30.3351V17.5276C24.5827 16.6358 24.9381 15.7811 25.5692 15.1511C26.2004 14.521 27.0558 14.1672 27.9476 14.1672H65.7602C66.6514 14.1672 67.5061 14.5212 68.1363 15.1514C68.7666 15.7816 69.1206 16.6364 69.1206 17.5276V30.3351C69.1206 30.416 69.0885 30.4935 69.0313 30.5507C68.9741 30.6079 68.8965 30.64 68.8157 30.64Z" fill="#B88F34"/>
<path d="M65.9187 13.0572C65.8378 13.0572 65.7603 13.025 65.7031 12.9679C65.6459 12.9107 65.6138 12.8331 65.6138 12.7522V3.22591C65.6138 2.13422 64.5587 1.24989 63.2657 1.24989H30.4298C29.1307 1.24989 28.0817 2.13422 28.0817 3.22591V12.7644C28.0817 12.8453 28.0496 12.9229 27.9924 12.9801C27.9352 13.0372 27.8577 13.0694 27.7768 13.0694C27.6959 13.0694 27.6184 13.0372 27.5612 12.9801C27.504 12.9229 27.4719 12.8453 27.4719 12.7644V3.22591C27.4719 1.79879 28.7953 0.640015 30.4298 0.640015H63.2657C64.8941 0.640015 66.2236 1.79879 66.2236 3.22591V12.7644C66.2205 12.8432 66.187 12.9176 66.1301 12.9722C66.0733 13.0268 65.9975 13.0572 65.9187 13.0572V13.0572Z" fill="#B88F34"/>
<path d="M68.8157 25.9561H24.9043C24.8239 25.9546 24.7473 25.9219 24.6904 25.8651C24.6336 25.8082 24.6009 25.7316 24.5994 25.6512C24.5994 25.5703 24.6315 25.4928 24.6887 25.4356C24.7459 25.3784 24.8234 25.3463 24.9043 25.3463H68.8462C68.927 25.3463 69.0046 25.3784 69.0618 25.4356C69.119 25.4928 69.1511 25.5703 69.1511 25.6512C69.1513 25.6939 69.1425 25.7363 69.1254 25.7754C69.1082 25.8145 69.0829 25.8496 69.0513 25.8784C69.0197 25.9071 68.9823 25.9289 68.9418 25.9423C68.9012 25.9557 68.8582 25.9604 68.8157 25.9561Z" fill="#B88F34"/>
<path d="M44.1582 13.0572C44.0773 13.0572 43.9998 13.0251 43.9426 12.9679C43.8854 12.9107 43.8533 12.8331 43.8533 12.7523V7.59877C43.8533 7.30544 43.7372 7.02403 43.5303 6.81604C43.3235 6.60805 43.0427 6.4904 42.7494 6.48879H34.9734C34.6801 6.4904 34.3993 6.60805 34.1925 6.81604C33.9856 7.02403 33.8695 7.30544 33.8695 7.59877V12.7645C33.8695 12.8453 33.8374 12.9229 33.7802 12.9801C33.723 13.0373 33.6455 13.0694 33.5646 13.0694C33.4837 13.0694 33.4061 13.0373 33.349 12.9801C33.2918 12.9229 33.2596 12.8453 33.2596 12.7645V7.59877C33.2596 7.14369 33.44 6.70716 33.7612 6.38479C34.0824 6.06243 34.5183 5.88052 34.9734 5.87891H42.7494C43.2045 5.88052 43.6403 6.06243 43.9616 6.38479C44.2828 6.70716 44.4631 7.14369 44.4631 7.59877V12.7645C44.46 12.8432 44.4265 12.9177 44.3696 12.9722C44.3128 13.0268 44.237 13.0573 44.1582 13.0572Z" fill="#B88F34"/>
<path d="M42.6396 13.0571C42.5587 13.0571 42.4812 13.025 42.424 12.9678C42.3668 12.9106 42.3347 12.8331 42.3347 12.7522V9.09292C42.3355 9.00059 42.3179 8.90902 42.2829 8.82356C42.248 8.7381 42.1964 8.66046 42.1311 8.59517C42.0658 8.52988 41.9881 8.47825 41.9027 8.44329C41.8172 8.40833 41.7256 8.39074 41.6333 8.39156H36.0895C35.9972 8.39074 35.9056 8.40833 35.8201 8.44329C35.7347 8.47825 35.657 8.52988 35.5918 8.59517C35.5265 8.66046 35.4748 8.7381 35.4399 8.82356C35.4049 8.90902 35.3873 9.00059 35.3881 9.09292V12.7522C35.3881 12.8331 35.356 12.9106 35.2988 12.9678C35.2416 13.025 35.1641 13.0571 35.0832 13.0571C35.0023 13.0571 34.9248 13.025 34.8676 12.9678C34.8104 12.9106 34.7783 12.8331 34.7783 12.7522V9.09292C34.7783 8.92073 34.8122 8.75022 34.8781 8.59113C34.944 8.43204 35.0406 8.28749 35.1623 8.16573C35.2841 8.04397 35.4286 7.94739 35.5877 7.88149C35.7468 7.8156 35.9173 7.78168 36.0895 7.78168H41.6333C41.9811 7.78168 42.3146 7.91983 42.5605 8.16573C42.8064 8.41164 42.9446 8.74516 42.9446 9.09292V12.7522C42.9446 12.8331 42.9124 12.9106 42.8552 12.9678C42.7981 13.025 42.7205 13.0571 42.6396 13.0571Z" fill="#B88F34"/>
<path d="M58.3196 13.0571C58.2387 13.0571 58.1612 13.025 58.104 12.9678C58.0468 12.9106 58.0147 12.8331 58.0147 12.7522V9.09292C58.0147 8.90691 57.9408 8.72851 57.8092 8.59698C57.6777 8.46545 57.4993 8.39156 57.3133 8.39156H51.7634C51.6708 8.39075 51.5789 8.4083 51.4931 8.44318C51.4073 8.47807 51.3293 8.5296 51.2635 8.59481C51.1977 8.66002 51.1455 8.73761 51.1099 8.8231C51.0743 8.9086 51.0559 9.0003 51.0559 9.09292V12.7522C51.0559 12.8331 51.0238 12.9106 50.9666 12.9678C50.9094 13.025 50.8319 13.0571 50.751 13.0571C50.6701 13.0571 50.5926 13.025 50.5354 12.9678C50.4782 12.9106 50.446 12.8331 50.446 12.7522V9.09292C50.4477 8.7446 50.5872 8.41109 50.834 8.16536C51.0809 7.91963 51.4151 7.78167 51.7634 7.78168H57.3072C57.655 7.78168 57.9885 7.91983 58.2344 8.16573C58.4803 8.41164 58.6184 8.74516 58.6184 9.09292V12.7522C58.6185 12.832 58.5872 12.9087 58.5313 12.9657C58.4754 13.0227 58.3994 13.0555 58.3196 13.0571Z" fill="#B88F34"/>
<path d="M59.8322 13.0571C59.7513 13.0571 59.6737 13.025 59.6165 12.9678C59.5593 12.9106 59.5272 12.8331 59.5272 12.7522V7.59872C59.5272 7.30539 59.4111 7.02398 59.2043 6.81599C58.9974 6.608 58.7167 6.49035 58.4233 6.48874H50.6474C50.354 6.49035 50.0733 6.608 49.8664 6.81599C49.6596 7.02398 49.5435 7.30539 49.5435 7.59872V12.7644C49.5435 12.8453 49.5113 12.9228 49.4542 12.98C49.397 13.0372 49.3194 13.0693 49.2385 13.0693C49.1577 13.0693 49.0801 13.0372 49.0229 12.98C48.9657 12.9228 48.9336 12.8453 48.9336 12.7644V7.59872C48.9336 7.14364 49.114 6.70711 49.4352 6.38474C49.7564 6.06238 50.1923 5.88047 50.6474 5.87886H58.4233C58.6497 5.87805 58.874 5.92195 59.0834 6.00802C59.2927 6.09409 59.483 6.22065 59.6434 6.38043C59.8037 6.54021 59.931 6.73008 60.0178 6.93914C60.1046 7.14821 60.1493 7.37235 60.1493 7.59872V12.7644C60.1477 12.8045 60.1383 12.8438 60.1215 12.8802C60.1047 12.9166 60.0809 12.9493 60.0514 12.9765C60.022 13.0037 59.9874 13.0248 59.9498 13.0387C59.9122 13.0525 59.8722 13.0588 59.8322 13.0571V13.0571Z" fill="#B88F34"/>
<path d="M7.26045 14.3806H5.64427V3.80528L3.20475 5.30559L2.53998 4.35417L6.9799 1.1767H7.27265L7.26045 14.3806Z" fill="#B88F34"/>
<path d="M16.4696 1.95735C14.0728 3.34178 12.847 4.87867 12.2005 6.64733C12.9177 6.15059 13.7676 5.88075 14.64 5.87278C18.3603 5.87278 19.1409 8.67213 19.1409 10.2883C19.1423 10.8665 19.0246 11.4387 18.795 11.9693C18.5655 12.4999 18.2291 12.9776 17.8067 13.3724C17.3844 13.7673 16.8853 14.0709 16.3404 14.2643C15.7956 14.4576 15.2167 14.5367 14.64 14.4965C14.0496 14.5175 13.4611 14.4174 12.9109 14.2022C12.3607 13.987 11.8604 13.6613 11.4409 13.2453C11.0214 12.8292 10.6917 12.3316 10.472 11.7832C10.2523 11.2348 10.1473 10.6471 10.1635 10.0566C10.1011 8.1555 10.5992 6.27808 11.5958 4.65798C12.5924 3.03787 14.0434 1.74662 15.7683 0.944946L16.4696 1.95735ZM17.6162 10.1541C17.6352 9.76223 17.5723 9.37066 17.4315 9.00441C17.2908 8.63816 17.0752 8.30527 16.7987 8.02696C16.5221 7.74865 16.1905 7.53105 15.8251 7.38801C15.4598 7.24498 15.0686 7.17966 14.6766 7.19622C14.2871 7.1653 13.8954 7.21791 13.5279 7.35054C13.1603 7.48316 12.8254 7.69275 12.5453 7.96527C12.2653 8.23779 12.0467 8.56696 11.9041 8.93077C11.7616 9.29458 11.6983 9.68464 11.7187 10.0749C11.7056 10.4711 11.7724 10.866 11.9153 11.2359C12.0581 11.6058 12.274 11.9431 12.5501 12.2277C12.8262 12.5123 13.1567 12.7383 13.5221 12.8924C13.8874 13.0464 14.2801 13.1253 14.6766 13.1243C15.068 13.1345 15.4574 13.0645 15.8207 12.9184C16.184 12.7724 16.5136 12.5535 16.789 12.2752C17.0644 11.9969 17.2799 11.6651 17.4222 11.3003C17.5645 10.9355 17.6305 10.5454 17.6162 10.1541V10.1541Z" fill="#B88F34"/>
</svg>
