<svg width="32" height="32" viewBox="0 0 32 32" fill="none" xmlns="http://www.w3.org/2000/svg">
<path d="M23.1197 30.8084H18.2007V23.186H13.7995V30.8084H8.88647V10.187C8.88647 10.1072 8.91819 10.0306 8.97465 9.97416C9.0311 9.9177 9.10768 9.88599 9.18752 9.88599C9.26736 9.88599 9.34393 9.9177 9.40039 9.97416C9.45684 10.0306 9.48856 10.1072 9.48856 10.187V30.2063H13.1974V22.5839H18.8028V30.2063H22.5176V10.187C22.5176 10.1072 22.5494 10.0306 22.6058 9.97416C22.6623 9.9177 22.7388 9.88599 22.8187 9.88599C22.898 9.88753 22.9737 9.91974 23.0298 9.97587C23.086 10.032 23.1182 10.1077 23.1197 10.187V30.8084Z" fill="#B88F34"/>
<path d="M15.13 20.1213H11.0479V16.0392H15.13V20.1213ZM11.6499 19.5192H14.5279V16.6413H11.6499V19.5192Z" fill="#B88F34"/>
<path d="M20.9522 20.1213H16.8701V16.0392H20.9522V20.1213ZM17.4722 19.5192H20.3502V16.6413H17.4722V19.5192Z" fill="#B88F34"/>
<path d="M15.13 14.2391H11.0479V10.157H15.13V14.2391ZM11.6499 13.637H14.5279V10.7591H11.6499V13.637Z" fill="#B88F34"/>
<path d="M20.9522 14.2391H16.8701V10.157H20.9522V14.2391ZM17.4722 13.637H20.3502V10.7591H17.4722V13.637Z" fill="#B88F34"/>
<path d="M25.1787 11.4692C25.0948 11.467 25.0149 11.4325 24.9559 11.3728L16.0029 1.93215L7.04995 11.2644C6.99346 11.3153 6.91985 11.3428 6.84388 11.3416C6.76792 11.3404 6.69521 11.3105 6.64036 11.258C6.5855 11.2054 6.55255 11.134 6.54812 11.0582C6.54369 10.9823 6.5681 10.9076 6.61645 10.849L16.009 1.08923L25.4015 10.9875C25.4297 11.0155 25.4521 11.0488 25.4673 11.0855C25.4826 11.1221 25.4905 11.1615 25.4905 11.2012C25.4905 11.241 25.4826 11.2803 25.4673 11.317C25.4521 11.3537 25.4297 11.387 25.4015 11.415C25.3698 11.4384 25.3338 11.4553 25.2955 11.4646C25.2573 11.4739 25.2176 11.4754 25.1787 11.4692Z" fill="#B88F34"/>
<path d="M28.9599 30.8084H22.5176V10.187C22.5176 10.1072 22.5493 10.0306 22.6058 9.97416C22.6622 9.9177 22.7388 9.88599 22.8186 9.88599C22.898 9.88753 22.9737 9.91974 23.0298 9.97587C23.0859 10.032 23.1181 10.1077 23.1197 10.187V30.2063H28.3578V14.0705C28.3578 13.9906 28.3895 13.9141 28.446 13.8576C28.5024 13.8011 28.579 13.7694 28.6588 13.7694C28.7387 13.7694 28.8152 13.8011 28.8717 13.8576C28.9282 13.9141 28.9599 13.9906 28.9599 14.0705V30.8084Z" fill="#B88F34"/>
<path d="M28.9598 19.459H24.8777V15.3768H28.9598V19.459ZM25.4798 18.8569H28.3577V15.9789H25.4798V18.8569Z" fill="#B88F34"/>
<path d="M28.9598 25.3053H24.8777V21.2231H28.9598V25.3053ZM25.4798 24.7032H28.3577V21.8252H25.4798V24.7032Z" fill="#B88F34"/>
<path d="M30.7239 15.2142C30.6503 15.2058 30.582 15.1717 30.5312 15.1178L22.8186 7.00775L22.0298 7.82658C22.0035 7.85853 21.9708 7.88469 21.9339 7.90343C21.8969 7.92217 21.8565 7.9331 21.8152 7.93551C21.7738 7.93793 21.7324 7.93179 21.6936 7.91748C21.6547 7.90316 21.6192 7.88099 21.5893 7.85233C21.5594 7.82368 21.5358 7.78916 21.5198 7.75094C21.5039 7.71272 21.496 7.67162 21.4966 7.63021C21.4973 7.5888 21.5065 7.54798 21.5236 7.51028C21.5408 7.47259 21.5655 7.43884 21.5963 7.41114L22.8005 6.14075L30.9407 14.7024C30.9689 14.7304 30.9913 14.7637 31.0066 14.8004C31.0218 14.837 31.0297 14.8764 31.0297 14.9161C31.0297 14.9559 31.0218 14.9952 31.0066 15.0319C30.9913 15.0686 30.9689 15.1019 30.9407 15.1299C30.8819 15.1848 30.8043 15.2149 30.7239 15.2142Z" fill="#B88F34"/>
<path d="M9.48835 30.8084H3.04004V14.0705C3.04004 13.9906 3.07176 13.9141 3.12821 13.8576C3.18467 13.8011 3.26124 13.7694 3.34108 13.7694C3.42092 13.7694 3.49749 13.8011 3.55395 13.8576C3.61041 13.9141 3.64212 13.9906 3.64212 14.0705V30.2063H8.88627V10.187C8.88627 10.1072 8.91799 10.0306 8.97444 9.97416C9.0309 9.9177 9.10747 9.88599 9.18731 9.88599C9.26667 9.88753 9.34235 9.91974 9.39848 9.97587C9.4546 10.032 9.48681 10.1077 9.48835 10.187V30.8084Z" fill="#B88F34"/>
<path d="M7.12217 19.459H3.04004V15.3768H7.12217V19.459ZM3.64212 18.8569H6.52008V15.9789H3.64212V18.8569Z" fill="#B88F34"/>
<path d="M7.12217 25.3053H3.04004V21.2231H7.12217V25.3053ZM3.64212 24.7032H6.52008V21.8252H3.64212V24.7032Z" fill="#B88F34"/>
<path d="M1.27618 15.2141C1.19959 15.2137 1.12618 15.1834 1.07147 15.1298C1.04325 15.1019 1.02086 15.0686 1.00558 15.0319C0.990292 14.9952 0.982422 14.9558 0.982422 14.9161C0.982422 14.8764 0.990292 14.837 1.00558 14.8003C1.02086 14.7636 1.04325 14.7304 1.07147 14.7024L9.18154 6.14075L10.3857 7.34491C10.4139 7.3729 10.4363 7.40619 10.4516 7.44288C10.4669 7.47956 10.4748 7.51891 10.4748 7.55865C10.4748 7.59839 10.4669 7.63774 10.4516 7.67443C10.4363 7.71111 10.4139 7.74441 10.3857 7.77239C10.3577 7.80061 10.3244 7.823 10.2877 7.83829C10.2511 7.85357 10.2117 7.86144 10.172 7.86144C10.1322 7.86144 10.0929 7.85357 10.0562 7.83829C10.0195 7.823 9.98621 7.80061 9.95823 7.77239L9.21164 6.9957L1.49293 15.1178C1.46521 15.1477 1.4317 15.1717 1.39444 15.1882C1.35718 15.2048 1.31695 15.2136 1.27618 15.2141Z" fill="#B88F34"/>
</svg>
