<svg width="33" height="32" viewBox="0 0 33 32" fill="none" xmlns="http://www.w3.org/2000/svg">
<path d="M31.743 17.0568H25.0332V16.4285H31.1147V1.87167H1.95712V16.4285H8.69208V17.0568H1.32886V1.24341H31.743V17.0568Z" fill="#B88F34"/>
<path d="M18.1599 16.4287H15.2385V17.057H18.1599V16.4287Z" fill="#B88F34"/>
<path d="M12.3173 31.8587H11.689V27.5928C11.689 27.2595 11.5566 26.9399 11.321 26.7043C11.0853 26.4687 10.7657 26.3363 10.4325 26.3363H3.886C3.55275 26.3363 3.23315 26.4687 2.99751 26.7043C2.76187 26.9399 2.62948 27.2595 2.62948 27.5928V31.8587H2.00122V27.5928C2.00122 27.0929 2.1998 26.6135 2.55326 26.26C2.90673 25.9066 3.38613 25.708 3.886 25.708H10.4325C10.9324 25.708 11.4118 25.9066 11.7652 26.26C12.1187 26.6135 12.3173 27.0929 12.3173 27.5928V31.8587Z" fill="#B88F34"/>
<path d="M9.91097 26.3298H4.40112V23.8168C4.43494 23.1089 4.73995 22.4412 5.2529 21.9521C5.76584 21.4631 6.44735 21.1903 7.15605 21.1903C7.86475 21.1903 8.54626 21.4631 9.0592 21.9521C9.57214 22.4412 9.87716 23.1089 9.91097 23.8168V26.3298ZM5.02938 25.7016H9.28271V23.8168C9.25313 23.2727 9.01618 22.7607 8.6206 22.3861C8.22502 22.0114 7.70089 21.8026 7.15605 21.8026C6.61121 21.8026 6.08708 22.0114 5.6915 22.3861C5.29592 22.7607 5.05897 23.2727 5.02938 23.8168V25.7016Z" fill="#B88F34"/>
<path d="M17.1674 20.9018H16.5391C16.5391 20.5685 16.4067 20.2489 16.1711 20.0133C15.9354 19.7776 15.6158 19.6452 15.2826 19.6452H8.7361C8.40285 19.6452 8.08325 19.7776 7.84761 20.0133C7.61196 20.2489 7.47958 20.5685 7.47958 20.9018H6.85132C6.85132 20.4019 7.04989 19.9225 7.40336 19.569C7.75682 19.2156 8.23623 19.017 8.7361 19.017H15.2763C15.5244 19.0162 15.7701 19.0643 15.9995 19.1586C16.2289 19.253 16.4374 19.3917 16.6131 19.5668C16.7888 19.7419 16.9282 19.95 17.0233 20.179C17.1184 20.4081 17.1674 20.6537 17.1674 20.9018Z" fill="#B88F34"/>
<path d="M14.7359 19.6392H9.25119V17.1261C9.23338 16.7533 9.29144 16.3807 9.42185 16.0309C9.55226 15.6812 9.75231 15.3615 10.0099 15.0914C10.2675 14.8212 10.5772 14.6061 10.9203 14.4592C11.2635 14.3122 11.6328 14.2365 12.0061 14.2365C12.3794 14.2365 12.7488 14.3122 13.0919 14.4592C13.435 14.6061 13.7448 14.8212 14.0023 15.0914C14.2599 15.3615 14.46 15.6812 14.5904 16.0309C14.7208 16.3807 14.7789 16.7533 14.761 17.1261L14.7359 19.6392ZM9.85432 19.0109H14.1077V17.1261C14.1234 16.8371 14.08 16.5479 13.9802 16.2763C13.8805 16.0046 13.7264 15.7561 13.5273 15.5459C13.3283 15.3358 13.0885 15.1684 12.8227 15.054C12.5568 14.9397 12.2704 14.8807 11.981 14.8807C11.6916 14.8807 11.4052 14.9397 11.1393 15.054C10.8734 15.1684 10.6337 15.3358 10.4346 15.5459C10.2356 15.7561 10.0815 16.0046 9.98174 16.2763C9.88196 16.5479 9.83861 16.8371 9.85432 17.1261V19.0109Z" fill="#B88F34"/>
<path d="M26.8677 20.9018H26.2395C26.2395 20.5685 26.1071 20.2489 25.8715 20.0133C25.6358 19.7776 25.3162 19.6452 24.983 19.6452H18.4302C18.0969 19.6452 17.7773 19.7776 17.5417 20.0133C17.3061 20.2489 17.1737 20.5685 17.1737 20.9018H16.5454C16.5454 20.4019 16.744 19.9225 17.0975 19.569C17.4509 19.2156 17.9303 19.017 18.4302 19.017H24.9767C25.2247 19.0162 25.4705 19.0643 25.6999 19.1586C25.9293 19.253 26.1378 19.3917 26.3135 19.5668C26.4892 19.7419 26.6286 19.95 26.7237 20.179C26.8188 20.4081 26.8677 20.6537 26.8677 20.9018Z" fill="#B88F34"/>
<path d="M24.4615 19.6392H18.9516V17.1261C18.9338 16.7533 18.9919 16.3807 19.1223 16.0309C19.2527 15.6812 19.4528 15.3615 19.7103 15.0914C19.9679 14.8212 20.2776 14.6061 20.6208 14.4592C20.9639 14.3122 21.3333 14.2365 21.7066 14.2365C22.0798 14.2365 22.4492 14.3122 22.7923 14.4592C23.1355 14.6061 23.4452 14.8212 23.7028 15.0914C23.9604 15.3615 24.1604 15.6812 24.2908 16.0309C24.4212 16.3807 24.4793 16.7533 24.4615 17.1261V19.6392ZM19.5799 19.0109H23.8332V17.1261C23.8489 16.8371 23.8056 16.5479 23.7058 16.2763C23.606 16.0046 23.4519 15.7561 23.2529 15.5459C23.0539 15.3358 22.8141 15.1684 22.5482 15.054C22.2824 14.9397 21.996 14.8807 21.7066 14.8807C21.4171 14.8807 21.1307 14.9397 20.8649 15.054C20.599 15.1684 20.3592 15.3358 20.1602 15.5459C19.9612 15.7561 19.8071 16.0046 19.7073 16.2763C19.6075 16.5479 19.5642 16.8371 19.5799 17.1261V19.0109Z" fill="#B88F34"/>
<path d="M22.0174 31.8587H21.3891V27.5928C21.3891 27.2595 21.2568 26.9399 21.0211 26.7043C20.7855 26.4687 20.4659 26.3363 20.1326 26.3363H13.5799C13.2466 26.3363 12.927 26.4687 12.6914 26.7043C12.4557 26.9399 12.3233 27.2595 12.3233 27.5928V31.8587H11.6951V27.5928C11.6951 27.0929 11.8936 26.6135 12.2471 26.26C12.6006 25.9066 13.08 25.708 13.5799 25.708H20.1263C20.6262 25.708 21.1056 25.9066 21.4591 26.26C21.8125 26.6135 22.0111 27.0929 22.0111 27.5928L22.0174 31.8587Z" fill="#B88F34"/>
<path d="M19.6112 26.3298H14.1077V23.8168C14.1415 23.1089 14.4465 22.4412 14.9594 21.9521C15.4724 21.4631 16.1539 21.1903 16.8626 21.1903C17.5713 21.1903 18.2528 21.4631 18.7657 21.9521C19.2787 22.4412 19.5837 23.1089 19.6175 23.8168L19.6112 26.3298ZM14.7359 25.7016H18.9893V23.8168C18.9597 23.2727 18.7227 22.7607 18.3271 22.3861C17.9316 22.0114 17.4074 21.8026 16.8626 21.8026C16.3178 21.8026 15.7936 22.0114 15.398 22.3861C15.0025 22.7607 14.7655 23.2727 14.7359 23.8168V25.7016Z" fill="#B88F34"/>
<path d="M31.699 31.8587H31.0707V27.5928C31.0707 27.2595 30.9384 26.9399 30.7027 26.7043C30.4671 26.4687 30.1475 26.3363 29.8142 26.3363H23.2803C22.947 26.3363 22.6274 26.4687 22.3918 26.7043C22.1562 26.9399 22.0238 27.2595 22.0238 27.5928V31.8587H21.3955V27.5928C21.3955 27.0929 21.5941 26.6135 21.9475 26.26C22.301 25.9066 22.7804 25.708 23.2803 25.708H29.8142C30.3141 25.708 30.7935 25.9066 31.147 26.26C31.5004 26.6135 31.699 27.0929 31.699 27.5928V31.8587Z" fill="#B88F34"/>
<path d="M29.3116 26.3298H23.8018V23.8168C23.8356 23.1089 24.1406 22.4412 24.6535 21.9521C25.1665 21.4631 25.848 21.1903 26.5567 21.1903C27.2654 21.1903 27.9469 21.4631 28.4598 21.9521C28.9728 22.4412 29.2778 23.1089 29.3116 23.8168V26.3298ZM24.43 25.7016H28.6833V23.8168C28.6538 23.2727 28.4168 22.7607 28.0212 22.3861C27.6256 22.0114 27.1015 21.8026 26.5567 21.8026C26.0118 21.8026 25.4877 22.0114 25.0921 22.3861C24.6966 22.7607 24.4596 23.2727 24.43 23.8168V25.7016Z" fill="#B88F34"/>
</svg>
