<svg width="78" height="32" viewBox="0 0 78 32" fill="none" xmlns="http://www.w3.org/2000/svg">
<path d="M48.1999 30.1879C46.3465 30.1784 44.5096 29.8386 42.7755 29.1842C35.5805 26.5397 33.9509 20.7374 33.8889 20.495L33.8156 20.2243L34.0467 20.0664C36.2966 18.7126 38.9021 18.0681 41.5237 18.2169H41.783L41.8845 18.4256C42.2812 19.2087 42.7335 19.9625 43.2378 20.6811C48.0589 27.5208 54.7126 27.5885 54.8818 27.5885H56.1448L55.0904 28.2877C53.024 29.5704 50.6317 30.2302 48.1999 30.1879V30.1879ZM34.7347 20.5626C35.1519 21.7299 37.1255 26.269 43.0461 28.4568C44.7188 29.1177 46.506 29.4406 48.3042 29.4067C50.1025 29.3728 51.8762 28.9829 53.5228 28.2595C51.2166 27.9155 46.3842 26.5679 42.5668 21.1321C42.0892 20.4472 41.6542 19.7335 41.2643 18.9951C38.9876 18.9331 36.7351 19.4739 34.7347 20.5626V20.5626Z" fill="#B88F34"/>
<path d="M61.5185 30.1879C59.0883 30.232 56.6972 29.572 54.6337 28.2876L53.6243 27.5602H54.8818C55.0509 27.5602 61.6482 27.4926 66.4975 20.6528C66.998 19.9328 67.4483 19.1792 67.8451 18.3973L67.9523 18.1887H68.1835C70.8157 18.04 73.432 18.6843 75.6942 20.0382L75.9254 20.1961L75.8521 20.4667C75.7844 20.7092 74.1605 26.5114 66.9599 29.156C65.2222 29.8219 63.3793 30.1714 61.5185 30.1879ZM56.2012 28.2425C57.8466 28.9667 59.6191 29.3575 61.4164 29.3923C63.2137 29.4272 65.0001 29.1054 66.6723 28.4455C72.6098 26.2577 74.5665 21.7298 74.9837 20.5513C72.9738 19.4619 70.711 18.9249 68.4259 18.995C68.0388 19.7314 67.6037 20.4416 67.1234 21.1208C63.306 26.534 58.5018 27.8986 56.2012 28.2425V28.2425Z" fill="#B88F34"/>
<path d="M54.8818 28.3609H53.6525L54.6619 27.656C54.7182 27.6222 60.1765 23.7089 60.1765 15.3016C60.1786 13.9879 60.0387 12.6777 59.7592 11.394L59.7085 11.1685L59.8777 11.0162C64.4732 6.82665 69.3225 6.77026 69.5311 6.77026H69.8074L69.9033 7.03528C69.9822 7.25519 71.7866 12.5161 68.5613 18.8145C68.144 19.6215 67.6731 20.3995 67.1516 21.1433V21.1433C62.1275 28.203 55.4456 28.3609 54.8818 28.3609ZM60.5205 11.4448C60.7788 12.7122 60.9092 14.0025 60.9095 15.296C60.9095 21.9722 57.7237 25.8742 56.049 27.4643C58.2142 27.1204 62.8154 25.7727 66.4524 20.6979C66.9529 19.9779 67.4032 19.2243 67.8 18.4424C69.5682 15.1055 70.0612 11.2391 69.1872 7.56532C65.9713 7.90947 62.9471 9.26364 60.5487 11.4335L60.5205 11.4448Z" fill="#B88F34"/>
<path d="M54.8366 28.361C54.2728 28.361 47.5571 28.2087 42.5668 21.1209C42.0425 20.3769 41.5714 19.5968 41.1571 18.7864C37.9318 12.4936 39.7362 7.23273 39.8151 7.01282L39.911 6.7478H40.1873C40.3903 6.7478 45.2283 6.80419 49.8125 10.9712L49.9817 11.1234L49.9366 11.349C49.6493 12.645 49.5056 13.9686 49.508 15.2961C49.508 23.7541 55.0283 27.611 55.0847 27.6505L56.1053 28.3553H54.8648L54.8366 28.361ZM40.4748 7.55414C39.598 11.2272 40.0891 15.0939 41.8563 18.4312C42.253 19.2144 42.7052 19.9681 43.2096 20.6867C46.8184 25.7615 51.4534 27.1092 53.6243 27.4531C51.9327 25.8574 48.7186 21.9554 48.7186 15.2848C48.7181 13.9835 48.8503 12.6855 49.1133 11.411C46.7165 9.24066 43.6909 7.88979 40.4748 7.55414V7.55414Z" fill="#B88F34"/>
<path d="M54.8592 28.4455L54.6393 28.2933C54.3968 28.1241 48.7243 24.1488 48.7243 15.2848C48.721 13.9064 48.8685 12.5318 49.1641 11.1855C50.5118 5.12384 54.4363 2.28757 54.5998 2.16352L54.831 2L55.0566 2.16352C55.2201 2.2763 59.1559 5.12384 60.4979 11.1855C60.7932 12.5242 60.9407 13.8913 60.9377 15.2622C60.9377 24.1263 55.299 28.1016 55.0848 28.2651L54.8592 28.4455ZM54.8592 2.99241C52.3657 5.17666 50.6483 8.11098 49.9648 11.3546C49.6776 12.6506 49.5339 13.9743 49.5363 15.3017C49.5363 22.7504 53.8442 26.6524 54.8874 27.4869C55.9193 26.6524 60.1765 22.7504 60.1765 15.3017C60.1786 13.9879 60.0387 12.6778 59.7592 11.3941C59.0742 8.13198 57.344 5.18228 54.831 2.99241H54.8592Z" fill="#B88F34"/>
<path d="M18.4049 2.874C17.0596 3.54258 16.0164 4.69454 15.4841 6.09934C15.9786 5.74585 16.568 5.54938 17.1757 5.53547C19.7357 5.53547 20.2714 7.46954 20.2714 8.58037C20.2732 8.97818 20.1928 9.37208 20.0351 9.73735C19.8775 10.1026 19.6461 10.4314 19.3555 10.703C19.0648 10.9746 18.7211 11.1832 18.346 11.3157C17.9709 11.4482 17.5725 11.5018 17.1757 11.473C16.7693 11.4879 16.3642 11.4191 15.9855 11.2711C15.6067 11.123 15.2624 10.8988 14.9738 10.6124C14.6852 10.3259 14.4585 9.9832 14.3077 9.60555C14.1568 9.22791 14.0851 8.82333 14.097 8.41685C14.0545 7.10871 14.3974 5.81693 15.0831 4.70211C15.7688 3.5873 16.7671 2.69863 17.9538 2.14661L18.4049 2.874ZM19.1944 8.51271C19.2063 8.24318 19.1621 7.97412 19.0648 7.72252C18.9674 7.47092 18.8189 7.24225 18.6287 7.05095C18.4384 6.85966 18.2106 6.70989 17.9595 6.61113C17.7085 6.51236 17.4396 6.46673 17.1701 6.47713C16.9017 6.45585 16.6318 6.49218 16.3786 6.58369C16.1255 6.6752 15.8947 6.81978 15.702 7.00773C15.5092 7.19569 15.3589 7.42267 15.261 7.67348C15.1631 7.92429 15.12 8.19312 15.1345 8.46196C15.1231 8.73604 15.1673 9.00959 15.2645 9.2661C15.3618 9.52261 15.51 9.75675 15.7002 9.95437C15.8905 10.152 16.1188 10.309 16.3714 10.4159C16.6241 10.5229 16.8957 10.5775 17.1701 10.5765C17.4415 10.5846 17.7116 10.5364 17.9635 10.4351C18.2154 10.3337 18.4436 10.1813 18.6337 9.98746C18.8239 9.79362 18.9718 9.56253 19.0683 9.30873C19.1648 9.05493 19.2077 8.7839 19.1944 8.51271V8.51271Z" fill="#B88F34"/>
<path d="M28.8422 6.89437C28.8422 8.86228 28.0415 11.5407 25.3632 11.5407C22.6848 11.5407 21.8897 8.84536 21.8897 6.89437C21.8897 4.94338 22.696 2.27063 25.3632 2.27063C28.0303 2.27063 28.8422 4.99976 28.8422 6.89437ZM27.7483 6.89437C27.7483 5.96962 27.4664 3.20665 25.3632 3.20665C23.2599 3.20665 22.9723 5.96962 22.9723 6.89437C22.9723 7.81912 23.2712 10.6328 25.3632 10.6328C27.4551 10.6328 27.7483 7.81912 27.7483 6.89437Z" fill="#B88F34"/>
<path d="M5.6953 16.4351C6.74974 16.7678 8.041 17.2414 8.041 18.6906C8.041 19.8183 6.97529 20.6077 5.55433 20.6077C4.65828 20.6346 3.77285 20.4079 3 19.9536C3.12969 19.6773 3.26502 19.4405 3.38907 19.1642C4.03123 19.5118 4.74558 19.7048 5.47539 19.7281C6.20842 19.7281 6.8456 19.339 6.8456 18.73C6.8456 17.9068 6.05618 17.67 5.18218 17.3824C4.18413 17.0497 3.0733 16.7001 3.0733 15.3806C3.0733 14.1627 3.9755 13.4691 5.26676 13.4691C6.10308 13.4758 6.92744 13.6684 7.68013 14.033C7.52788 14.3544 7.4433 14.5969 7.29105 14.8844C6.73175 14.6355 6.13564 14.4794 5.52614 14.4221C4.8213 14.4221 4.19541 14.6194 4.15594 15.3243C4.11646 16.0291 4.85513 16.1757 5.6953 16.4351Z" fill="#B88F34"/>
<path d="M9.69879 16.9764C9.69879 15.4878 10.522 13.4071 13.082 13.4071C13.5071 13.3857 13.9314 13.462 14.3224 13.6301C14.7134 13.7982 15.0606 14.0537 15.3375 14.3769C15.3939 14.1683 15.5349 13.8131 15.6307 13.5199H16.2397V23.2635H15.1119V20.072C14.515 20.3853 13.852 20.5516 13.1779 20.557C10.5051 20.557 9.69879 18.4312 9.69879 16.9764ZM10.8265 16.9764C10.8265 17.7658 11.2269 19.5984 13.2568 19.5984C13.911 19.5668 14.5444 19.3582 15.0894 18.995V15.3806C14.8559 15.0922 14.5613 14.8591 14.2268 14.6982C13.8924 14.5373 13.5264 14.4526 13.1553 14.4502C11.1479 14.4502 10.8547 16.2941 10.8547 16.9764H10.8265Z" fill="#B88F34"/>
<path d="M19.6116 20.4725H18.4839V13.5312H19.059L19.3353 14.3939C19.936 13.7949 20.7428 13.448 21.5908 13.4241C22.0237 13.383 22.4597 13.4562 22.8555 13.6362C23.2513 13.8163 23.5929 14.097 23.8463 14.4503C24.1405 14.1282 24.4984 13.8706 24.8974 13.694C25.2963 13.5173 25.7275 13.4254 26.1638 13.4241C28.7012 13.4241 28.8253 15.3356 28.8253 16.8919V20.4725H27.6863V16.5592C27.6863 15.8205 27.6863 14.4898 26.1187 14.377C25.73 14.3579 25.3433 14.4435 24.9991 14.6251C24.6549 14.8066 24.3658 15.0773 24.1621 15.4089C24.2384 15.8994 24.2705 16.3957 24.2579 16.8919V20.4725H23.1302V16.6269C23.0907 15.9333 23.1584 14.518 21.5626 14.4052C21.174 14.4035 20.7914 14.501 20.4509 14.6885C20.1105 14.876 19.8236 15.1472 19.6173 15.4766L19.6116 20.4725Z" fill="#B88F34"/>
</svg>
