<svg width="75" height="32" viewBox="0 0 75 32" fill="none" xmlns="http://www.w3.org/2000/svg">
<path d="M11.2618 11.3823H10.1342V4.00728L8.44265 5.05601L7.98031 4.39068L11.0758 2.1748H11.2788L11.2618 11.3823Z" fill="#B88F34"/>
<path d="M13.9626 9.64561C14.4563 10.1925 15.1444 10.5244 15.8797 10.5703C16.1579 10.5782 16.4349 10.5289 16.6934 10.4255C16.9519 10.3221 17.1864 10.1668 17.3825 9.96914C17.5785 9.77149 17.732 9.53572 17.8333 9.27641C17.9346 9.0171 17.9816 8.73976 17.9715 8.46155C17.9754 8.18991 17.9227 7.92043 17.8167 7.67029C17.7107 7.42014 17.5538 7.19481 17.356 7.00863C17.1581 6.82246 16.9237 6.67953 16.6676 6.58894C16.4115 6.49835 16.1393 6.4621 15.8684 6.48248H13.8442V2.21423H18.3549V3.13893H14.9719V5.54087H15.8684C18.4338 5.54087 19.0597 7.35079 19.0597 8.5574C19.0584 8.96586 18.9732 9.3697 18.8094 9.74388C18.6456 10.1181 18.4067 10.4546 18.1075 10.7327C17.8083 11.0107 17.4552 11.2244 17.07 11.3604C16.6848 11.4963 16.2758 11.5518 15.8684 11.5232C15.3732 11.5289 14.8833 11.4199 14.4373 11.2047C13.9912 10.9895 13.601 10.6739 13.2973 10.2827L13.9626 9.64561Z" fill="#B88F34"/>
<path d="M25.0759 2.71603C23.7124 3.397 22.6555 4.56663 22.1157 5.99192C22.6103 5.63877 23.1996 5.44234 23.8072 5.42808C26.4009 5.42808 26.9421 7.3846 26.9421 8.51227C26.9431 8.91499 26.8611 9.3136 26.7012 9.68323C26.5414 10.0529 26.3071 10.3856 26.0129 10.6607C25.7188 10.9358 25.3711 11.1473 24.9917 11.2821C24.6122 11.4169 24.209 11.4721 23.8072 11.4442C23.3952 11.459 22.9845 11.3892 22.6004 11.2393C22.2163 11.0894 21.8669 10.8625 21.5738 10.5726C21.2807 10.2826 21.05 9.93574 20.8959 9.5533C20.7418 9.17086 20.6677 8.76094 20.6779 8.34876C20.64 7.02355 20.9923 5.71642 21.691 4.58972C22.3897 3.46302 23.404 2.5664 24.6079 2.01123L25.0759 2.71603ZM25.8765 8.43897C25.89 8.16558 25.8465 7.89237 25.7487 7.63671C25.6509 7.38105 25.501 7.14852 25.3085 6.95391C25.116 6.7593 24.8852 6.60686 24.6306 6.50628C24.376 6.40571 24.1033 6.35919 23.8298 6.36969C23.5597 6.3527 23.2891 6.39291 23.0357 6.48767C22.7822 6.58243 22.5517 6.72963 22.359 6.91962C22.1664 7.10961 22.016 7.33813 21.9177 7.59023C21.8194 7.84233 21.7754 8.11233 21.7887 8.38259C21.7766 8.6592 21.8202 8.93542 21.9171 9.1948C22.0139 9.45418 22.162 9.69141 22.3524 9.89238C22.5429 10.0934 22.7718 10.2539 23.0256 10.3646C23.2794 10.4752 23.5529 10.5337 23.8298 10.5364C24.1049 10.5438 24.3786 10.4942 24.6336 10.3907C24.8886 10.2872 25.1195 10.1321 25.3117 9.93516C25.5039 9.73819 25.6533 9.50359 25.7505 9.24611C25.8477 8.98863 25.8906 8.71383 25.8765 8.43897V8.43897Z" fill="#B88F34"/>
<path d="M46.293 30.1862C44.4397 30.1767 42.6029 29.8368 40.8689 29.1826C33.68 26.5382 32.0449 20.725 31.9772 20.4938L31.9039 20.2232L32.1351 20.0653C34.3865 18.7108 36.994 18.0663 39.6172 18.2159H39.8315L39.933 18.4245C40.3317 19.2065 40.7839 19.96 41.2862 20.6799C46.1239 27.5023 52.7997 27.57 52.9463 27.57H54.2093L53.1831 28.2973C51.1157 29.5761 48.7235 30.2318 46.293 30.1862V30.1862ZM32.8286 20.5615C33.2458 21.7286 35.2193 26.2675 41.1396 28.4552C42.8122 29.1161 44.5992 29.4389 46.3974 29.405C48.1955 29.3711 49.9691 28.9812 51.6157 28.2579C49.3096 27.9139 44.4775 26.5663 40.6603 21.131C40.1808 20.4473 39.7458 19.7335 39.3578 18.994C37.0816 18.9342 34.8297 19.4748 32.8286 20.5615Z" fill="#B88F34"/>
<path d="M59.6109 30.1862C57.1808 30.2303 54.7899 29.5704 52.7264 28.2861L51.7002 27.5587H52.9576C53.1267 27.5587 59.7236 27.491 64.5726 20.6517C65.0731 19.9318 65.5234 19.1782 65.9202 18.3964L66.0273 18.1877H66.2585C68.8906 18.039 71.5068 18.6832 73.7688 20.0371L74 20.195L73.9267 20.4656C73.859 20.7081 72.2352 26.51 65.0406 29.1544C63.3063 29.8179 61.4677 30.1673 59.6109 30.1862V30.1862ZM54.2939 28.241C55.9391 28.9651 57.7116 29.3558 59.5088 29.3907C61.306 29.4255 63.0923 29.1037 64.7643 28.4439C70.7016 26.2562 72.6581 21.7286 73.0753 20.5502C71.0655 19.4609 68.8028 18.9239 66.5179 18.994C66.1272 19.7307 65.6883 20.4408 65.2041 21.1197C61.3982 26.5325 56.5943 27.897 54.2939 28.241V28.241Z" fill="#B88F34"/>
<path d="M52.9745 28.3595H51.7453L52.7602 27.6547C52.811 27.6208 58.2689 23.7078 58.2689 15.301C58.271 13.9873 58.1311 12.6772 57.8517 11.3936L57.8009 11.1681L57.9701 11.0158C62.5654 6.82652 67.4144 6.77014 67.623 6.77014H67.8993L67.9951 7.03515C68.0741 7.25504 69.8783 12.5156 66.6532 18.8137C66.2381 19.6218 65.7671 20.3999 65.2436 21.1423V21.1423C60.2254 28.2016 53.5383 28.3595 52.9745 28.3595ZM58.6129 11.4444C58.874 12.7113 59.0043 14.0018 59.0019 15.2954C59.0019 21.9712 55.8219 25.8729 54.1416 27.463C56.3068 27.119 60.9077 25.7715 64.5444 20.6969C65.0449 19.977 65.4952 19.2234 65.892 18.4416C67.66 15.1049 68.1531 11.2388 67.279 7.56515C64.0633 7.90928 61.0393 9.26337 58.6411 11.4331L58.6129 11.4444Z" fill="#B88F34"/>
<path d="M52.9294 28.3596C52.3656 28.3596 45.6503 28.2073 40.6603 21.1199C40.1418 20.3755 39.6764 19.5955 39.2676 18.7856C36.0425 12.4932 37.8468 7.23258 37.9257 7.01268L38.0215 6.74768H38.2978C38.5008 6.74768 43.3385 6.80407 47.9225 10.9708L48.0917 11.1231L48.0466 11.3486C47.7612 12.6447 47.6194 13.9683 47.6237 15.2955C47.6237 23.753 53.138 27.6097 53.1944 27.6491L54.2206 28.3539H52.9745L52.9294 28.3596ZM38.5685 7.55397C37.6917 11.2268 38.1827 15.0933 39.9499 18.4304C40.3486 19.2123 40.8008 19.9659 41.3031 20.6857C44.906 25.7603 49.5464 27.1078 51.7228 27.4518C50.0313 25.8561 46.8174 21.9544 46.8174 15.2842C46.814 13.9828 46.9463 12.6846 47.2121 11.4106C44.8139 9.2393 41.7863 7.88844 38.5685 7.55397V7.55397Z" fill="#B88F34"/>
<path d="M52.9576 28.444L52.7321 28.2917C52.4896 28.1226 46.8174 24.1475 46.8174 15.284C46.8142 13.9057 46.9616 12.5312 47.2572 11.1849C48.6048 5.12366 52.5291 2.28756 52.6926 2.16351L52.9238 2L53.1493 2.16351C53.3185 2.27628 57.2484 5.12366 58.5903 11.1849C58.8856 12.5236 59.0331 13.8906 59.0301 15.2614C59.0301 24.125 53.3918 28.1 53.1775 28.2635L52.9576 28.444ZM52.9238 2.99235C50.4305 5.17647 48.7131 8.11061 48.0297 11.3541C47.7443 12.6502 47.6025 13.9738 47.6068 15.3009C47.6068 22.7492 51.9089 26.651 52.952 27.4854C53.9838 26.651 58.2408 22.7492 58.2408 15.3009C58.2428 13.9872 58.1029 12.6772 57.8235 11.3935C57.1461 8.13527 55.4262 5.18621 52.9238 2.99235V2.99235Z" fill="#B88F34"/>
<path d="M3.69514 16.4342C4.74952 16.7668 6.0407 17.2405 6.0407 18.6895C6.0407 19.8172 4.96941 20.6066 3.55418 20.6066C2.65818 20.6335 1.7728 20.4067 1 19.9525C1.12404 19.6762 1.265 19.4394 1.38905 19.1631C2.03117 19.5107 2.74547 19.7037 3.47525 19.727C4.20823 19.727 4.84537 19.3379 4.84537 18.729C4.84537 17.9058 4.056 17.669 3.18205 17.3814C2.18406 17.0488 1.0733 16.6992 1.0733 15.3798C1.0733 14.1619 1.97544 13.4684 3.26662 13.4684C4.10289 13.475 4.92721 13.6676 5.67985 14.0322C5.52761 14.3536 5.44304 14.5961 5.2908 14.8836C4.73153 14.6347 4.13546 14.4786 3.52599 14.4213C2.82119 14.4213 2.19533 14.6186 2.15587 15.3234C2.1164 16.0282 2.86066 16.1748 3.69514 16.4342Z" fill="#B88F34"/>
<path d="M7.69275 16.9754C7.69275 15.4869 8.51595 13.4064 11.0758 13.4064C11.5008 13.385 11.9251 13.4613 12.3161 13.6294C12.707 13.7975 13.0543 14.0529 13.3311 14.3762C13.3875 14.1675 13.5285 13.8123 13.6243 13.5191H14.222V23.2622H13.0943V20.0709C12.4974 20.3842 11.8344 20.5504 11.1603 20.5558C8.51031 20.5558 7.69275 18.4301 7.69275 16.9754ZM8.84861 16.9754C8.84861 17.7648 9.24894 19.5973 11.2788 19.5973C11.9271 19.5626 12.5542 19.3543 13.0943 18.994V15.3798C12.8603 15.0919 12.5656 14.8593 12.2313 14.6985C11.897 14.5377 11.5313 14.4526 11.1603 14.4495C9.14745 14.4495 8.85989 16.2932 8.85989 16.9754H8.84861Z" fill="#B88F34"/>
<path d="M17.6163 20.4713H16.4886V13.5305H17.0863L17.3626 14.3931C17.9632 13.7941 18.77 13.4472 19.6179 13.4233C20.0507 13.3823 20.4868 13.4554 20.8825 13.6355C21.2782 13.8156 21.6199 14.0962 21.8733 14.4495C22.1675 14.1274 22.5254 13.8699 22.9243 13.6932C23.3231 13.5166 23.7544 13.4247 24.1906 13.4233C26.7279 13.4233 26.8519 15.3347 26.8519 16.8909V20.4713H25.7243V16.5583C25.7243 15.8197 25.7243 14.489 24.1568 14.3762C23.7681 14.3571 23.3815 14.4427 23.0373 14.6243C22.6931 14.8058 22.404 15.0765 22.2003 15.408C22.2766 15.8985 22.3087 16.3948 22.2961 16.8909V20.4713H21.1685V16.6259C21.129 15.9324 21.1966 14.5172 19.601 14.4044C19.2124 14.4027 18.8298 14.5002 18.4894 14.6877C18.149 14.8751 17.862 15.1464 17.6558 15.4757L17.6163 20.4713Z" fill="#B88F34"/>
</svg>
