<svg width="46" height="32" viewBox="0 0 46 32" fill="none" xmlns="http://www.w3.org/2000/svg">
<path d="M4.84676 14.5295H3.19058V3.69129L0.675867 5.23179L0 4.25147L4.54841 1H4.84676V14.5295Z" fill="#B88F34"/>
<path d="M39.401 32H29.4374V24.4044H25.122V32H15.1649V15.6184C15.1649 15.5326 15.199 15.4503 15.2596 15.3896C15.3203 15.3289 15.4026 15.2949 15.4884 15.2949C15.5737 15.2965 15.655 15.3311 15.7153 15.3914C15.7756 15.4518 15.8102 15.5331 15.8119 15.6184V31.3531H24.475V23.7574H30.0844V31.3531H38.754V15.6184C38.754 15.5326 38.7881 15.4503 38.8487 15.3896C38.9094 15.3289 38.9917 15.2949 39.0775 15.2949C39.1628 15.2965 39.2441 15.3311 39.3044 15.3914C39.3647 15.4518 39.3993 15.5331 39.401 15.6184V32Z" fill="#B88F34"/>
<path d="M43.2375 17.6433C43.1935 17.6444 43.1497 17.6356 43.1094 17.6177C43.0691 17.5998 43.0333 17.5732 43.0046 17.5398L27.2829 0.970479L11.5611 17.5398C11.5318 17.5708 11.4967 17.5957 11.4577 17.6132C11.4188 17.6306 11.3768 17.6402 11.3341 17.6414C11.2914 17.6426 11.249 17.6354 11.2091 17.6202C11.1692 17.605 11.1327 17.582 11.1017 17.5527C11.0707 17.5234 11.0458 17.4883 11.0284 17.4493C11.0109 17.4104 11.0013 17.3684 11.0001 17.3257C10.9989 17.2831 11.0061 17.2406 11.0214 17.2007C11.0366 17.1609 11.0595 17.1244 11.0888 17.0934L27.2829 0L43.4575 17.0675C43.4878 17.0976 43.5119 17.1333 43.5283 17.1728C43.5447 17.2122 43.5532 17.2545 43.5532 17.2972C43.5532 17.3399 43.5447 17.3822 43.5283 17.4216C43.5119 17.461 43.4878 17.4968 43.4575 17.5268C43.4306 17.5601 43.3972 17.5876 43.3594 17.6076C43.3216 17.6276 43.2801 17.6397 43.2375 17.6433V17.6433Z" fill="#B88F34"/>
<path d="M24.9407 21.5771H18.4709V15.1072H24.9407V21.5771ZM19.1179 20.9301H24.2937V15.7542H19.1179V20.9301Z" fill="#B88F34"/>
<path d="M36.0948 21.5771H29.6249V15.1072H36.0948V21.5771ZM30.2719 20.9301H35.4478V15.7542H30.2719V20.9301Z" fill="#B88F34"/>
</svg>
