<svg width="55" height="32" viewBox="0 0 55 32" fill="none" xmlns="http://www.w3.org/2000/svg">
<g clip-path="url(#clip0)">
<path d="M7.12131 32C3.20141 32 0.0188599 29.7061 0.0188599 26.8827C0.0188599 26.7992 0.052058 26.719 0.111152 26.6599C0.170245 26.6008 0.250393 26.5676 0.333964 26.5676C0.417535 26.5676 0.497682 26.6008 0.556776 26.6599C0.615869 26.719 0.649069 26.7992 0.649069 26.8827C0.649069 29.3595 3.55433 31.3698 7.12131 31.3698C10.6883 31.3698 13.5936 29.3595 13.5936 26.8827C13.5936 26.7992 13.6268 26.719 13.6858 26.6599C13.7449 26.6008 13.8251 26.5676 13.9087 26.5676C13.9922 26.5676 14.0724 26.6008 14.1315 26.6599C14.1906 26.719 14.2238 26.7992 14.2238 26.8827C14.2238 29.7061 11.0412 32 7.12131 32Z" fill="#B88F34"/>
<path d="M20.6961 32C16.7825 32 13.5936 29.7061 13.5936 26.8827C13.5936 26.7992 13.6268 26.719 13.6859 26.6599C13.745 26.6008 13.8252 26.5676 13.9087 26.5676C13.9923 26.5676 14.0725 26.6008 14.1315 26.6599C14.1906 26.719 14.2238 26.7992 14.2238 26.8827C14.2238 29.3595 17.1291 31.3698 20.6961 31.3698C24.2631 31.3698 27.1746 29.3595 27.1746 26.8827C27.1746 26.7992 27.2078 26.719 27.2669 26.6599C27.326 26.6008 27.4062 26.5676 27.4897 26.5676C27.5733 26.5676 27.6535 26.6008 27.7125 26.6599C27.7716 26.719 27.8048 26.7992 27.8048 26.8827C27.8048 29.7061 24.616 32 20.6961 32Z" fill="#B88F34"/>
<path d="M34.277 32C30.3571 32 27.1746 29.7061 27.1746 26.8827C27.1746 26.7992 27.2078 26.719 27.2669 26.6599C27.326 26.6008 27.4061 26.5676 27.4897 26.5676C27.5733 26.5676 27.6534 26.6008 27.7125 26.6599C27.7716 26.719 27.8048 26.7992 27.8048 26.8827C27.8048 29.3595 30.7038 31.3698 34.277 31.3698C37.8503 31.3698 40.7493 29.3595 40.7493 26.8827C40.7493 26.7992 40.7825 26.719 40.8416 26.6599C40.9007 26.6008 40.9808 26.5676 41.0644 26.5676C41.148 26.5676 41.2281 26.6008 41.2872 26.6599C41.3463 26.719 41.3795 26.7992 41.3795 26.8827C41.3795 29.7061 38.1906 32 34.277 32Z" fill="#B88F34"/>
<path d="M47.8517 32C43.9382 32 40.7493 29.7061 40.7493 26.8827C40.7493 26.7992 40.7825 26.719 40.8416 26.6599C40.9007 26.6008 40.9808 26.5676 41.0644 26.5676C41.148 26.5676 41.2281 26.6008 41.2872 26.6599C41.3463 26.719 41.3795 26.7992 41.3795 26.8827C41.3795 29.3595 44.2848 31.3698 47.8517 31.3698C51.4187 31.3698 54.324 29.3595 54.324 26.8827C54.324 26.7992 54.3572 26.719 54.4163 26.6599C54.4754 26.6008 54.5555 26.5676 54.6391 26.5676C54.7227 26.5676 54.8028 26.6008 54.8619 26.6599C54.921 26.719 54.9542 26.7992 54.9542 26.8827C54.9542 29.7061 51.7716 32 47.8517 32Z" fill="#B88F34"/>
<path d="M7.12131 24.5193C3.20141 24.5193 0.0188599 22.2191 0.0188599 19.402C0.0188599 19.3184 0.052058 19.2383 0.111152 19.1792C0.170245 19.1201 0.250393 19.0869 0.333964 19.0869C0.417535 19.0869 0.497682 19.1201 0.556776 19.1792C0.615869 19.2383 0.649069 19.3184 0.649069 19.402C0.649069 21.8724 3.55433 23.8891 7.12131 23.8891C10.6883 23.8891 13.5936 21.8724 13.5936 19.402C13.5936 19.3184 13.6268 19.2383 13.6858 19.1792C13.7449 19.1201 13.8251 19.0869 13.9087 19.0869C13.9922 19.0869 14.0724 19.1201 14.1315 19.1792C14.1906 19.2383 14.2238 19.3184 14.2238 19.402C14.2238 22.2191 11.0412 24.5193 7.12131 24.5193Z" fill="#B88F34"/>
<path d="M20.6961 24.5193C16.7825 24.5193 13.5936 22.2191 13.5936 19.402C13.5936 19.3184 13.6268 19.2383 13.6859 19.1792C13.745 19.1201 13.8252 19.0869 13.9087 19.0869C13.9923 19.0869 14.0725 19.1201 14.1315 19.1792C14.1906 19.2383 14.2238 19.3184 14.2238 19.402C14.2238 21.8724 17.1291 23.8891 20.6961 23.8891C24.2631 23.8891 27.1746 21.8724 27.1746 19.402C27.1746 19.3184 27.2078 19.2383 27.2669 19.1792C27.326 19.1201 27.4062 19.0869 27.4897 19.0869C27.5733 19.0869 27.6535 19.1201 27.7125 19.1792C27.7716 19.2383 27.8048 19.3184 27.8048 19.402C27.8048 22.2191 24.616 24.5193 20.6961 24.5193Z" fill="#B88F34"/>
<path d="M34.277 24.5193C30.3571 24.5193 27.1746 22.2191 27.1746 19.402C27.1746 19.3184 27.2078 19.2383 27.2669 19.1792C27.326 19.1201 27.4061 19.0869 27.4897 19.0869C27.5733 19.0869 27.6534 19.1201 27.7125 19.1792C27.7716 19.2383 27.8048 19.3184 27.8048 19.402C27.8048 21.8724 30.7038 23.8891 34.277 23.8891C37.8503 23.8891 40.7493 21.8724 40.7493 19.402C40.7493 19.3184 40.7825 19.2383 40.8416 19.1792C40.9007 19.1201 40.9808 19.0869 41.0644 19.0869C41.148 19.0869 41.2281 19.1201 41.2872 19.1792C41.3463 19.2383 41.3795 19.3184 41.3795 19.402C41.3795 22.2191 38.1906 24.5193 34.277 24.5193Z" fill="#B88F34"/>
<path d="M47.8517 24.5193C43.9382 24.5193 40.7493 22.2191 40.7493 19.402C40.7493 19.3184 40.7825 19.2383 40.8416 19.1792C40.9007 19.1201 40.9808 19.0869 41.0644 19.0869C41.148 19.0869 41.2281 19.1201 41.2872 19.1792C41.3463 19.2383 41.3795 19.3184 41.3795 19.402C41.3795 21.8724 44.2848 23.8891 47.8517 23.8891C51.4187 23.8891 54.324 21.8724 54.324 19.402C54.324 19.3184 54.3572 19.2383 54.4163 19.1792C54.4754 19.1201 54.5555 19.0869 54.6391 19.0869C54.7227 19.0869 54.8028 19.1201 54.8619 19.1792C54.921 19.2383 54.9542 19.3184 54.9542 19.402C54.9542 22.2191 51.7716 24.5193 47.8517 24.5193Z" fill="#B88F34"/>
<path d="M25.8385 12.8038H0.333964C0.250393 12.8038 0.170245 12.7706 0.111152 12.7115C0.052058 12.6524 0.0188599 12.5722 0.0188599 12.4887C0.0188599 12.4051 0.052058 12.3249 0.111152 12.2659C0.170245 12.2068 0.250393 12.1736 0.333964 12.1736H25.2083V7.44069H0.333964C0.250393 7.44069 0.170245 7.40749 0.111152 7.3484C0.052058 7.28931 0.0188599 7.20916 0.0188599 7.12559C0.0188599 7.04202 0.052058 6.96187 0.111152 6.90278C0.170245 6.84368 0.250393 6.81049 0.333964 6.81049H25.8385V12.8038Z" fill="#B88F34"/>
<path d="M5.85464 21.0406C5.77107 21.0406 5.69092 21.0074 5.63183 20.9483C5.57273 20.8893 5.53954 20.8091 5.53954 20.7255V12.4572C5.53954 12.3736 5.57273 12.2935 5.63183 12.2344C5.69092 12.1753 5.77107 12.1421 5.85464 12.1421C5.93771 12.1437 6.01692 12.1774 6.07567 12.2362C6.13441 12.2949 6.16813 12.3741 6.16974 12.4572V20.7255C6.16813 20.8086 6.13441 20.8878 6.07567 20.9466C6.01692 21.0053 5.93771 21.039 5.85464 21.0406Z" fill="#B88F34"/>
<path d="M8.29985 21.0406C8.21678 21.039 8.13757 21.0053 8.07882 20.9466C8.02007 20.8878 7.98635 20.8086 7.98474 20.7255V12.4572C7.98635 12.3741 8.02007 12.2949 8.07882 12.2362C8.13757 12.1774 8.21678 12.1437 8.29985 12.1421C8.38342 12.1421 8.46356 12.1753 8.52266 12.2344C8.58175 12.2935 8.61495 12.3736 8.61495 12.4572V20.7255C8.61495 20.8091 8.58175 20.8893 8.52266 20.9483C8.46356 21.0074 8.38342 21.0406 8.29985 21.0406Z" fill="#B88F34"/>
<path d="M20.6394 21.0407C20.5563 21.0391 20.4771 21.0054 20.4183 20.9467C20.3596 20.8879 20.3259 20.8087 20.3243 20.7256V12.4573C20.3334 12.3798 20.3705 12.3084 20.4284 12.2562C20.4864 12.204 20.5614 12.1747 20.6394 12.1737C20.7229 12.1737 20.8031 12.2069 20.8622 12.266C20.9213 12.3251 20.9545 12.4052 20.9545 12.4888V20.7256C20.9545 20.8092 20.9213 20.8894 20.8622 20.9485C20.8031 21.0075 20.7229 21.0407 20.6394 21.0407Z" fill="#B88F34"/>
<path d="M23.1034 21.0406C23.0199 21.0406 22.9397 21.0074 22.8806 20.9483C22.8215 20.8893 22.7883 20.8091 22.7883 20.7255V12.4572C22.7883 12.3736 22.8215 12.2935 22.8806 12.2344C22.9397 12.1753 23.0199 12.1421 23.1034 12.1421C23.1865 12.1437 23.2657 12.1774 23.3245 12.2362C23.3832 12.2949 23.4169 12.3741 23.4185 12.4572V20.7255C23.4169 20.8086 23.3832 20.8878 23.3245 20.9466C23.2657 21.0053 23.1865 21.039 23.1034 21.0406V21.0406Z" fill="#B88F34"/>
<path d="M18.5912 3.21834H0.315104C0.231534 3.21834 0.151385 3.18514 0.0922917 3.12604C0.0331982 3.06695 0 2.9868 0 2.90323C0 2.81966 0.0331982 2.73951 0.0922917 2.68042C0.151385 2.62132 0.231534 2.58813 0.315104 2.58813H17.961V1.63021H0.315104C0.231534 1.63021 0.151385 1.59701 0.0922917 1.53792C0.0331982 1.47882 0 1.39868 0 1.3151C0 1.23153 0.0331982 1.15139 0.0922917 1.09229C0.151385 1.0332 0.231534 1 0.315104 1H18.5912V3.21834Z" fill="#B88F34"/>
<path d="M14.1545 6.15506C14.0709 6.15506 13.9908 6.12186 13.9317 6.06276C13.8726 6.00367 13.8394 5.92352 13.8394 5.83995V2.90318C13.8394 2.81961 13.8726 2.73946 13.9317 2.68037C13.9908 2.62127 14.0709 2.58807 14.1545 2.58807C14.2381 2.58807 14.3182 2.62127 14.3773 2.68037C14.4364 2.73946 14.4696 2.81961 14.4696 2.90318V5.87146C14.4618 5.94946 14.4251 6.02173 14.3669 6.07417C14.3086 6.12661 14.2329 6.15545 14.1545 6.15506Z" fill="#B88F34"/>
<path d="M8.21165 6.15506C8.12808 6.15506 8.04793 6.12186 7.98884 6.06276C7.92974 6.00367 7.89655 5.92352 7.89655 5.83995V2.90318C7.89655 2.81961 7.92974 2.73946 7.98884 2.68037C8.04793 2.62127 8.12808 2.58807 8.21165 2.58807C8.29522 2.58807 8.37537 2.62127 8.43446 2.68037C8.49356 2.73946 8.52675 2.81961 8.52675 2.90318V5.87146C8.51892 5.94946 8.48229 6.02173 8.42402 6.07417C8.36576 6.12661 8.29004 6.15545 8.21165 6.15506Z" fill="#B88F34"/>
<path d="M2.27508 6.15506C2.19151 6.15506 2.11136 6.12186 2.05227 6.06276C1.99317 6.00367 1.95998 5.92352 1.95998 5.83995V2.90318C1.95998 2.81961 1.99317 2.73946 2.05227 2.68037C2.11136 2.62127 2.19151 2.58807 2.27508 2.58807C2.35865 2.58807 2.4388 2.62127 2.49789 2.68037C2.55699 2.73946 2.59019 2.81961 2.59019 2.90318V5.87146C2.58235 5.94946 2.54572 6.02173 2.48745 6.07417C2.42919 6.12661 2.35347 6.15545 2.27508 6.15506Z" fill="#B88F34"/>
<path d="M23.9164 3.90525H21.654C21.3843 3.90359 21.1262 3.79529 20.9361 3.60401C20.746 3.41272 20.6393 3.15399 20.6393 2.88431V2.43056C20.6393 2.15921 20.7467 1.89888 20.938 1.70641C21.1293 1.51395 21.3889 1.40499 21.6603 1.40332H23.9164C24.1878 1.40499 24.4474 1.51395 24.6387 1.70641C24.83 1.89888 24.9374 2.15921 24.9374 2.43056V2.88431C24.9374 3.15508 24.8298 3.41476 24.6383 3.60622C24.4469 3.79769 24.1872 3.90525 23.9164 3.90525ZM21.654 2.01462C21.5498 2.01628 21.4504 2.05884 21.3773 2.13311C21.3042 2.20739 21.2632 2.30744 21.2633 2.41165V2.8654C21.2633 2.96903 21.3044 3.06842 21.3777 3.14169C21.451 3.21497 21.5504 3.25613 21.654 3.25613H23.9164C23.9677 3.25613 24.0185 3.24603 24.066 3.22639C24.1134 3.20676 24.1564 3.17798 24.1927 3.14169C24.229 3.10541 24.2578 3.06234 24.2774 3.01493C24.2971 2.96752 24.3072 2.91672 24.3072 2.8654V2.41165C24.3072 2.30744 24.2662 2.20739 24.1931 2.13311C24.12 2.05884 24.0206 2.01628 23.9164 2.01462H21.654Z" fill="#B88F34"/>
<path d="M24.5592 7.44077H21.0112V3.27509H24.5592V7.44077ZM21.6414 6.81056H23.929V3.90529H21.6414V6.81056Z" fill="#B88F34"/>
</g>
<defs>
<clipPath id="clip0">
<rect width="55" height="32" fill="white"/>
</clipPath>
</defs>
</svg>
